<svg aria-hidden="true" style="width:0;height:0;position:absolute;overflow:hidden" xmlns="http://www.w3.org/2000/svg"><defs><symbol id="mail" viewBox="0 0 36 32"><path fill="currentColor" d="M34.714 1.6H1.286a1.273 1.273 0 0 0-.909.383A1.317 1.317 0 0 0 0 2.907V29.091c0 .347.135.68.377.926.231.236.553.383.909.383h33.428c.356 0 .678-.147.909-.383.233-.238.377-.564.377-.924V2.907c0-.36-.144-.686-.377-.924a1.274 1.274 0 0 0-.909-.384zM18.789 18.343a1.263 1.263 0 0 1-1.581-.003l.003.002L4.625 8.375l1.578-2.067L18 15.65l11.797-9.342 1.578 2.067-12.586 9.967z"/></symbol><symbol id="phone" viewBox="0 0 32 32"><path fill="currentColor" d="M31.925 24.153c-.373-.397-1.689-1.571-4.109-3.125-2.438-1.567-4.236-2.544-4.752-2.772a.27.27 0 0 0-.281.035h.001a90.707 90.707 0 0 0-2.304 1.902c-.484.415-.484.415-.881.286-.697-.229-2.863-1.379-4.75-3.27s-3.096-4.111-3.325-4.808c-.131-.397-.131-.397.286-.881a91.918 91.918 0 0 0 1.903-2.304.274.274 0 0 0 .034-.282l.001.002c-.228-.516-1.205-2.313-2.772-4.751C9.42 1.766 8.247.449 7.85.077a.278.278 0 0 0-.28-.062l.002-.001a22.819 22.819 0 0 0-4.109 1.877l.109-.059a24.26 24.26 0 0 0-3.51 2.482l.034-.028a.274.274 0 0 0-.089.269v-.002c.149.696.863 3.6 3.077 7.623 2.259 4.106 3.825 6.209 7.143 9.516s5.488 4.967 9.598 7.226c4.023 2.214 6.929 2.929 7.623 3.077a.273.273 0 0 0 .267-.09 23.965 23.965 0 0 0 2.391-3.362l.061-.113a23.023 23.023 0 0 0 1.818-4 .277.277 0 0 0-.062-.276z"/></symbol><symbol id="icon-heart" viewBox="0 0 35 32"><path fill="currentColor" d="M17.6 32c.568 0 1.096-.174 1.533-.47l-.01.006c6.65-4.446 9.529-7.494 11.117-9.4 3.384-4.063 5.005-8.233 4.959-12.75C35.146 4.21 30.93 0 25.8 0c-3.73 0-6.313 2.069-7.817 3.792a.517.517 0 0 1-.17.126l-.003.001a.513.513 0 0 1-.593-.126v-.001C15.713 2.067 13.129 0 9.4 0 4.271 0 .055 4.21.001 9.387c-.046 4.517 1.576 8.688 4.959 12.75 1.588 1.906 4.467 4.954 11.117 9.4.428.29.955.463 1.523.463z"/></symbol><symbol id="icon-star" viewBox="0 0 35 32"><path fill="currentColor" d="m17.333 0 3.892 11.977h12.593L23.63 19.379l3.892 11.977-10.188-7.402-10.188 7.402 3.892-11.977L.85 11.977h12.593L17.335 0z"/></symbol><symbol id="icon-instagram" viewBox="0 0 32 32"><path d="M31.969 9.408c-.075-1.7-.35-2.869-.744-3.882a7.806 7.806 0 0 0-1.851-2.838A7.867 7.867 0 0 0 26.542.844C25.523.45 24.36.175 22.66.1 20.947.019 20.403 0 16.059 0s-4.888.019-6.595.094c-1.7.075-2.869.35-3.882.744a7.803 7.803 0 0 0-2.838 1.85A7.867 7.867 0 0 0 .9 5.52C.506 6.539.231 7.702.156 9.402c-.081 1.713-.1 2.257-.1 6.601s.019 4.888.094 6.595c.075 1.7.35 2.869.744 3.882a7.895 7.895 0 0 0 1.85 2.838 7.867 7.867 0 0 0 2.832 1.844c1.019.394 2.182.669 3.882.744 1.706.075 2.25.094 6.595.094s4.888-.019 6.595-.094c1.7-.075 2.869-.35 3.882-.744a8.184 8.184 0 0 0 4.682-4.682c.394-1.019.669-2.182.744-3.882.075-1.707.094-2.251.094-6.595s-.006-4.888-.081-6.595zm-2.882 13.065c-.069 1.563-.331 2.407-.55 2.969a5.31 5.31 0 0 1-3.038 3.038c-.563.219-1.413.481-2.969.55-1.688.075-2.194.094-6.464.094s-4.782-.019-6.464-.094c-1.563-.069-2.407-.331-2.969-.55a4.926 4.926 0 0 1-1.838-1.194 4.974 4.974 0 0 1-1.194-1.838c-.219-.563-.481-1.413-.55-2.969-.075-1.688-.094-2.194-.094-6.464s.019-4.782.094-6.464c.069-1.563.331-2.407.55-2.969a4.868 4.868 0 0 1 1.2-1.838A4.974 4.974 0 0 1 6.639 3.55c.563-.219 1.413-.481 2.969-.55 1.688-.075 2.194-.094 6.464-.094 4.276 0 4.782.019 6.464.094 1.563.069 2.407.331 2.969.55a4.914 4.914 0 0 1 1.838 1.194 4.974 4.974 0 0 1 1.194 1.838c.219.563.481 1.413.55 2.969.075 1.688.094 2.194.094 6.464s-.019 4.77-.094 6.458z"/><path d="M16.059 7.783c-4.538 0-8.22 3.682-8.22 8.22s3.682 8.22 8.22 8.22 8.22-3.682 8.22-8.22-3.682-8.22-8.22-8.22zm0 13.552a5.333 5.333 0 0 1 0-10.664 5.333 5.333 0 0 1 0 10.664zM26.524 7.458a1.919 1.919 0 1 1-3.838 0 1.919 1.919 0 0 1 3.838 0z"/></symbol><symbol id="icon-smartphone" viewBox="0 0 20 32"><path d="M17 0H3C1.346 0 0 1.346 0 3v26c0 1.654 1.346 3 3 3h14c1.654 0 3-1.346 3-3V3c0-1.654-1.346-3-3-3zM3 2h14a1 1 0 0 1 1 1v21H2V3a1 1 0 0 1 1-1zm14 28H3a1 1 0 0 1-1-1v-3h16v3a1 1 0 0 1-1 1z"/><path d="M4.707 27.478c.391.365.391.956 0 1.321s-1.024.365-1.414 0c-.391-.365-.391-.956 0-1.321s1.024-.365 1.414 0z"/></symbol><symbol id="icon-twitter" viewBox="0 0 32 32"><path d="M32 6.078c-1.19.522-2.458.868-3.78 1.036a6.523 6.523 0 0 0 2.886-3.626 13.11 13.11 0 0 1-4.16 1.588A6.574 6.574 0 0 0 22.154 3c-3.632 0-6.556 2.948-6.556 6.562 0 .52.044 1.02.152 1.496-5.454-.266-10.28-2.88-13.522-6.862a6.605 6.605 0 0 0-.898 3.316 6.57 6.57 0 0 0 2.914 5.452 6.479 6.479 0 0 1-2.964-.808v.072c0 3.188 2.274 5.836 5.256 6.446a6.548 6.548 0 0 1-1.72.216 5.8 5.8 0 0 1-1.242-.112c.85 2.598 3.262 4.508 6.13 4.57a13.182 13.182 0 0 1-8.134 2.798c-.538 0-1.054-.024-1.57-.09A18.469 18.469 0 0 0 10.064 29c12.072 0 18.672-10 18.672-18.668 0-.29-.01-.57-.024-.848A13.087 13.087 0 0 0 32 6.078z"/></symbol><symbol id="icon-facebook" viewBox="0 0 32 32"><path d="M21.329 5.313h2.921V.225C23.746.156 22.013 0 19.994 0c-4.212 0-7.097 2.649-7.097 7.519V12H8.249v5.688h4.648V32h5.699V17.689h4.46l.708-5.688h-5.169V8.082c.001-1.644.444-2.769 2.735-2.769z"/></symbol><symbol id="icon-linkedin" viewBox="0 0 32 32"><path d="M31.992 32v-.001H32V20.263c0-5.741-1.236-10.164-7.948-10.164-3.227 0-5.392 1.771-6.276 3.449h-.093v-2.913h-6.364v21.364h6.627V21.42c0-2.785.528-5.479 3.977-5.479 3.399 0 3.449 3.179 3.449 5.657v10.401h6.62zM.528 10.636h6.635V32H.528V10.636zM3.843 0C1.722 0 0 1.721 0 3.843s1.721 3.879 3.843 3.879c2.121 0 3.843-1.757 3.843-3.879A3.846 3.846 0 0 0 3.843 0z"/></symbol><symbol id="open-menu" viewBox="0 0 24 24"><path fill="currentColor" d="M3 13h18a1 1 0 0 0 0-2H3a1 1 0 0 0 0 2zm0-6h18a1 1 0 0 0 0-2H3a1 1 0 0 0 0 2zm0 12h18a1 1 0 0 0 0-2H3a1 1 0 0 0 0 2z"/></symbol><symbol id="close-menu" viewBox="0 0 24 24"><path fill="currentColor" d="M5.293 6.707 10.586 12l-5.293 5.293a.999.999 0 1 0 1.414 1.414L12 13.414l5.293 5.293a.999.999 0 1 0 1.414-1.414L13.414 12l5.293-5.293a.999.999 0 1 0-1.414-1.414L12 10.586 6.707 5.293a.999.999 0 1 0-1.414 1.414z"/></symbol><symbol id="clock" viewBox="0 0 32 32"><path fill="currentColor" d="M16 0C7.163 0 0 7.163 0 16s7.163 16 16 16 16-7.163 16-16S24.837 0 16 0zm4.586 23.414L14 16.828V8h4v7.172l5.414 5.414-2.829 2.829z"/><symbol id="icon-viber" viewBox="0 0 32 32"><path fill="#fff" style="fill:var(--color1,#fff)" d="M15.197.003C12.63.038 7.108.459 4.018 3.29 1.725 5.57.923 8.931.83 13.094.75 17.241.657 25.027 8.163 27.149v3.227s-.051 1.293.803 1.56c1.053.333 1.653-.665 2.653-1.732l1.867-2.107c5.133.427 9.067-.559 9.52-.705 1.04-.333 6.908-1.081 7.868-8.869.987-8.041-.48-13.108-3.12-15.401l-.013-.003c-.8-.733-4-3.067-11.16-3.093 0 0-.528-.033-1.384-.021zm.09 2.262c.727-.004 1.173.027 1.173.027 6.053.013 8.948 1.84 9.628 2.453 2.227 1.905 3.371 6.475 2.533 13.189-.8 6.507-5.56 6.92-6.44 7.2-.373.12-3.84.973-8.203.693 0 0-3.252 3.921-4.265 4.935-.16.173-.347.227-.467.2-.173-.04-.227-.253-.213-.547l.027-5.359c-6.361-1.76-5.988-8.403-5.921-11.869.08-3.467.733-6.309 2.667-8.229 2.609-2.36 7.3-2.68 9.481-2.693zm.48 3.467h-.001a.4.4 0 0 0 .001.799l.143-.001c2.034 0 3.88.809 5.232 2.123l-.002-.002c1.453 1.413 2.161 3.307 2.188 5.787a.4.4 0 0 0 .4.4v-.012a.4.4 0 0 0 .4-.4 8.575 8.575 0 0 0-2.415-6.349l.002.002c-1.587-1.547-3.589-2.347-5.948-2.347zm-5.272.92a1.263 1.263 0 0 0-.826.163l.006-.003h-.016c-.547.32-1.051.72-1.531 1.253-.36.427-.561.852-.615 1.265a1.634 1.634 0 0 0 .07.733l-.003-.012.027.013a18.197 18.197 0 0 0 1.646 3.549l-.046-.082a20.684 20.684 0 0 0 3.101 4.237l-.008-.009.04.053.053.04.08.08a20.864 20.864 0 0 0 4.136 3.053l.104.054c1.76.96 2.829 1.413 3.469 1.6v.013c.187.053.357.08.531.08a2.447 2.447 0 0 0 1.471-.631l-.002.002a6.03 6.03 0 0 0 1.24-1.531v-.013c.307-.573.2-1.121-.24-1.495a18.139 18.139 0 0 0-2.781-2.007l-.085-.046c-.68-.373-1.373-.147-1.653.227l-.6.759c-.307.373-.867.32-.867.32l-.016.013c-4.16-1.067-5.267-5.279-5.267-5.279s-.053-.573.333-.867l.747-.6c.36-.293.613-.987.227-1.667a18.073 18.073 0 0 0-2.071-2.887l.017.02a1.127 1.127 0 0 0-.665-.399l-.007-.001zm5.964 1.187a.401.401 0 0 0 .001.8h.001a5.027 5.027 0 0 1 3.532 1.532l.001.001a4.646 4.646 0 0 1 1.199 3.44l.001-.014c.001.22.18.399.4.399l.013.016a.4.4 0 0 0 .4-.4v-.001c.04-1.587-.453-2.92-1.427-3.987s-2.333-1.667-4.067-1.787l-.028-.001-.029.001h.001zm.653 2.158H17.1a.407.407 0 0 0-.012.815h.001c1.32.067 1.96.733 2.04 2.107a.4.4 0 0 0 .4.387h.013a.4.4 0 0 0 .388-.4l-.001-.028v.001c-.093-1.787-1.067-2.788-2.8-2.881h-.016z"/></symbol><symbol id="icon-instagram" viewBox="0 0 32 32"><path d="M16 2.881c4.275 0 4.781.019 6.462.094 1.563.069 2.406.331 2.969.55a4.952 4.952 0 0 1 1.837 1.194 5.015 5.015 0 0 1 1.2 1.838c.219.563.481 1.412.55 2.969.075 1.688.094 2.194.094 6.463s-.019 4.781-.094 6.463c-.069 1.563-.331 2.406-.55 2.969a4.94 4.94 0 0 1-1.194 1.837 5.02 5.02 0 0 1-1.837 1.2c-.563.219-1.413.481-2.969.55-1.688.075-2.194.094-6.463.094s-4.781-.019-6.463-.094c-1.563-.069-2.406-.331-2.969-.55a4.952 4.952 0 0 1-1.838-1.194 5.02 5.02 0 0 1-1.2-1.837c-.219-.563-.481-1.413-.55-2.969-.075-1.688-.094-2.194-.094-6.463s.019-4.781.094-6.463c.069-1.563.331-2.406.55-2.969a4.964 4.964 0 0 1 1.194-1.838 5.015 5.015 0 0 1 1.838-1.2c.563-.219 1.412-.481 2.969-.55 1.681-.075 2.188-.094 6.463-.094zM16 0c-4.344 0-4.887.019-6.594.094-1.7.075-2.869.35-3.881.744-1.056.412-1.95.956-2.837 1.85a7.833 7.833 0 0 0-1.85 2.831C.444 6.538.169 7.7.094 9.4.019 11.113 0 11.656 0 16s.019 4.887.094 6.594c.075 1.7.35 2.869.744 3.881.413 1.056.956 1.95 1.85 2.837a7.82 7.82 0 0 0 2.831 1.844c1.019.394 2.181.669 3.881.744 1.706.075 2.25.094 6.594.094s4.888-.019 6.594-.094c1.7-.075 2.869-.35 3.881-.744 1.05-.406 1.944-.956 2.831-1.844s1.438-1.781 1.844-2.831c.394-1.019.669-2.181.744-3.881.075-1.706.094-2.25.094-6.594s-.019-4.887-.094-6.594c-.075-1.7-.35-2.869-.744-3.881a7.506 7.506 0 0 0-1.831-2.844A7.82 7.82 0 0 0 26.482.843C25.463.449 24.301.174 22.601.099c-1.712-.081-2.256-.1-6.6-.1z"/><path d="M16 7.781c-4.537 0-8.219 3.681-8.219 8.219s3.681 8.219 8.219 8.219 8.219-3.681 8.219-8.219A8.221 8.221 0 0 0 16 7.781zm0 13.55a5.331 5.331 0 1 1 0-10.663 5.331 5.331 0 0 1 0 10.663zM26.462 7.456a1.919 1.919 0 1 1-3.838 0 1.919 1.919 0 0 1 3.838 0z"/></symbol><symbol id="icon-whatsapp" viewBox="0 0 32 32"><path d="M27.281 4.65C24.287 1.65 20.306 0 16.062 0 7.324 0 .212 7.112.212 15.856c0 2.794.731 5.525 2.119 7.925L.081 32l8.406-2.206a15.858 15.858 0 0 0 7.575 1.931h.006c8.738 0 15.856-7.113 15.856-15.856 0-4.238-1.65-8.219-4.644-11.219zm-11.212 24.4a13.17 13.17 0 0 1-6.713-1.837l-.481-.288-4.987 1.306 1.331-4.863-.313-.5a13.086 13.086 0 0 1-2.019-7.012c0-7.269 5.912-13.181 13.188-13.181 3.519 0 6.831 1.375 9.319 3.862a13.108 13.108 0 0 1 3.856 9.325c-.006 7.275-5.919 13.188-13.181 13.188zm7.225-9.875c-.394-.2-2.344-1.156-2.706-1.288s-.625-.2-.894.2c-.262.394-1.025 1.288-1.256 1.556-.231.262-.462.3-.856.1s-1.675-.619-3.188-1.969c-1.175-1.05-1.975-2.35-2.206-2.744s-.025-.613.175-.806c.181-.175.394-.463.594-.694s.262-.394.394-.662c.131-.262.069-.494-.031-.694s-.894-2.15-1.219-2.944c-.319-.775-.65-.669-.894-.681-.231-.012-.494-.012-.756-.012s-.694.1-1.056.494c-.363.394-1.387 1.356-1.387 3.306s1.419 3.831 1.619 4.1c.2.262 2.794 4.269 6.769 5.981.944.406 1.681.65 2.256.837.95.3 1.813.256 2.494.156.762-.113 2.344-.956 2.675-1.881s.331-1.719.231-1.881c-.094-.175-.356-.275-.756-.475z"/></symbol><symbol id="icon-chat" viewBox="0 0 42 32"><path d="M35.652 14.023a.5.5 0 0 0-.303.953C39.257 16.221 41 18.078 41 21c0 2.599-2.371 4.616-3.783 5.588A.5.5 0 0 0 37 27v3.823a7.953 7.953 0 0 1-3.126-2.155.505.505 0 0 0-.468-.159c-.285.055-.576.133-.871.212-.51.137-1.036.279-1.535.279-2.568 0-4.366-.552-6.204-1.903a.5.5 0 0 0-.593.806C26.23 29.393 28.199 30 31 30c.631 0 1.223-.159 1.795-.313.178-.049.355-.097.53-.138 1.869 1.974 3.983 2.423 4.075 2.441a.495.495 0 0 0 .416-.103A.498.498 0 0 0 38 31.5v-4.239c2.582-1.841 4-4.057 4-6.261 0-3.381-2.017-5.598-6.348-6.977zM33 13.5C33 5.804 25.982 0 16.677 0 7.325 0 0 5.931 0 13.502c0 4.539 3.211 7.791 6 9.759v6.636a.502.502 0 0 0 .705.456c.146-.065 3.559-1.616 6.479-4.809 1.265.235 2.696.461 3.994.461C26.641 26.005 33 20.979 33 13.5zM17.177 25.005c-1.31 0-2.799-.251-4.083-.496a.507.507 0 0 0-.468.159C10.576 26.98 8.167 28.449 7 29.082V23a.5.5 0 0 0-.217-.412C4.145 20.773 1 17.725 1 13.502 1 6.491 7.886 1 16.677 1 25.413 1 32 6.374 32 13.5c0 6.882-5.957 11.505-14.823 11.505zM16.5 11.5c-1.103 0-2 .897-2 2s.897 2 2 2 2-.897 2-2-.897-2-2-2zm0 3a1.001 1.001 0 0 1 0-2 1.001 1.001 0 0 1 0 2zm7-3c-1.103 0-2 .897-2 2s.897 2 2 2 2-.897 2-2-.897-2-2-2zm0 3a1.001 1.001 0 0 1 0-2 1.001 1.001 0 0 1 0 2zm-14-2.905c-1.103 0-2 .897-2 2s.897 2 2 2 2-.897 2-2-.897-2-2-2zm0 3a1.001 1.001 0 0 1 0-2 1.001 1.001 0 0 1 0 2z"/></symbol></symbol></defs></svg>