<svg aria-hidden="true" style="width:0;height:0;position:absolute;overflow:hidden" xmlns="http://www.w3.org/2000/svg"><defs><symbol id="mail" viewBox="0 0 36 32"><path fill="#ccaa60" d="M34.714 1.6H1.286a1.273 1.273 0 0 0-.909.383A1.317 1.317 0 0 0 0 2.907V29.091c0 .347.135.68.377.926.231.236.553.383.909.383h33.428c.356 0 .678-.147.909-.383.233-.238.377-.564.377-.924V2.907c0-.36-.144-.686-.377-.924a1.274 1.274 0 0 0-.909-.384zM18.789 18.343a1.263 1.263 0 0 1-1.581-.003l.003.002L4.625 8.375l1.578-2.067L18 15.65l11.797-9.342 1.578 2.067-12.586 9.967z"/></symbol><symbol id="phone" viewBox="0 0 32 32"><path fill="#ccaa60" d="M31.925 24.153c-.373-.397-1.689-1.571-4.109-3.125-2.438-1.567-4.236-2.544-4.752-2.772a.27.27 0 0 0-.281.035h.001a90.707 90.707 0 0 0-2.304 1.902c-.484.415-.484.415-.881.286-.697-.229-2.863-1.379-4.75-3.27s-3.096-4.111-3.325-4.808c-.131-.397-.131-.397.286-.881a91.918 91.918 0 0 0 1.903-2.304.274.274 0 0 0 .034-.282l.001.002c-.228-.516-1.205-2.313-2.772-4.751C9.42 1.766 8.247.449 7.85.077a.278.278 0 0 0-.28-.062l.002-.001a22.819 22.819 0 0 0-4.109 1.877l.109-.059a24.26 24.26 0 0 0-3.51 2.482l.034-.028a.274.274 0 0 0-.089.269v-.002c.149.696.863 3.6 3.077 7.623 2.259 4.106 3.825 6.209 7.143 9.516s5.488 4.967 9.598 7.226c4.023 2.214 6.929 2.929 7.623 3.077a.273.273 0 0 0 .267-.09 23.965 23.965 0 0 0 2.391-3.362l.061-.113a23.023 23.023 0 0 0 1.818-4 .277.277 0 0 0-.062-.276z"/></symbol><symbol id="icon-heart" viewBox="0 0 35 32"><path fill="#d1b06b" style="fill:var(--color1,#d1b06b)" d="M17.6 32c.568 0 1.096-.174 1.533-.47l-.01.006c6.65-4.446 9.529-7.494 11.117-9.4 3.384-4.063 5.005-8.233 4.959-12.75C35.146 4.21 30.93 0 25.8 0c-3.73 0-6.313 2.069-7.817 3.792a.517.517 0 0 1-.17.126l-.003.001a.513.513 0 0 1-.593-.126v-.001C15.713 2.067 13.129 0 9.4 0 4.271 0 .055 4.21.001 9.387c-.046 4.517 1.576 8.688 4.959 12.75 1.588 1.906 4.467 4.954 11.117 9.4.428.29.955.463 1.523.463z"/></symbol><symbol id="icon-star" viewBox="0 0 35 32"><path fill="#d1b06b" style="fill:var(--color1,#d1b06b)" d="m17.333 0 3.892 11.977h12.593L23.63 19.379l3.892 11.977-10.188-7.402-10.188 7.402 3.892-11.977L.85 11.977h12.593L17.335 0z"/></symbol><symbol id="icon-instagram" viewBox="0 0 32 32"><path d="M31.969 9.408c-.075-1.7-.35-2.869-.744-3.882a7.806 7.806 0 0 0-1.851-2.838A7.867 7.867 0 0 0 26.542.844C25.523.45 24.36.175 22.66.1 20.947.019 20.403 0 16.059 0s-4.888.019-6.595.094c-1.7.075-2.869.35-3.882.744a7.803 7.803 0 0 0-2.838 1.85A7.867 7.867 0 0 0 .9 5.52C.506 6.539.231 7.702.156 9.402c-.081 1.713-.1 2.257-.1 6.601s.019 4.888.094 6.595c.075 1.7.35 2.869.744 3.882a7.895 7.895 0 0 0 1.85 2.838 7.867 7.867 0 0 0 2.832 1.844c1.019.394 2.182.669 3.882.744 1.706.075 2.25.094 6.595.094s4.888-.019 6.595-.094c1.7-.075 2.869-.35 3.882-.744a8.184 8.184 0 0 0 4.682-4.682c.394-1.019.669-2.182.744-3.882.075-1.707.094-2.251.094-6.595s-.006-4.888-.081-6.595zm-2.882 13.065c-.069 1.563-.331 2.407-.55 2.969a5.31 5.31 0 0 1-3.038 3.038c-.563.219-1.413.481-2.969.55-1.688.075-2.194.094-6.464.094s-4.782-.019-6.464-.094c-1.563-.069-2.407-.331-2.969-.55a4.926 4.926 0 0 1-1.838-1.194 4.974 4.974 0 0 1-1.194-1.838c-.219-.563-.481-1.413-.55-2.969-.075-1.688-.094-2.194-.094-6.464s.019-4.782.094-6.464c.069-1.563.331-2.407.55-2.969a4.868 4.868 0 0 1 1.2-1.838A4.974 4.974 0 0 1 6.639 3.55c.563-.219 1.413-.481 2.969-.55 1.688-.075 2.194-.094 6.464-.094 4.276 0 4.782.019 6.464.094 1.563.069 2.407.331 2.969.55a4.914 4.914 0 0 1 1.838 1.194 4.974 4.974 0 0 1 1.194 1.838c.219.563.481 1.413.55 2.969.075 1.688.094 2.194.094 6.464s-.019 4.77-.094 6.458z"/><path d="M16.059 7.783c-4.538 0-8.22 3.682-8.22 8.22s3.682 8.22 8.22 8.22 8.22-3.682 8.22-8.22-3.682-8.22-8.22-8.22zm0 13.552a5.333 5.333 0 0 1 0-10.664 5.333 5.333 0 0 1 0 10.664zM26.524 7.458a1.919 1.919 0 1 1-3.838 0 1.919 1.919 0 0 1 3.838 0z"/></symbol><symbol id="icon-smartphone" viewBox="0 0 20 32"><path d="M17 0H3C1.346 0 0 1.346 0 3v26c0 1.654 1.346 3 3 3h14c1.654 0 3-1.346 3-3V3c0-1.654-1.346-3-3-3zM3 2h14a1 1 0 0 1 1 1v21H2V3a1 1 0 0 1 1-1zm14 28H3a1 1 0 0 1-1-1v-3h16v3a1 1 0 0 1-1 1z"/><path d="M4.707 27.478c.391.365.391.956 0 1.321s-1.024.365-1.414 0c-.391-.365-.391-.956 0-1.321s1.024-.365 1.414 0z"/></symbol><symbol id="icon-twitter" viewBox="0 0 32 32"><path d="M32 6.078c-1.19.522-2.458.868-3.78 1.036a6.523 6.523 0 0 0 2.886-3.626 13.11 13.11 0 0 1-4.16 1.588A6.574 6.574 0 0 0 22.154 3c-3.632 0-6.556 2.948-6.556 6.562 0 .52.044 1.02.152 1.496-5.454-.266-10.28-2.88-13.522-6.862a6.605 6.605 0 0 0-.898 3.316 6.57 6.57 0 0 0 2.914 5.452 6.479 6.479 0 0 1-2.964-.808v.072c0 3.188 2.274 5.836 5.256 6.446a6.548 6.548 0 0 1-1.72.216 5.8 5.8 0 0 1-1.242-.112c.85 2.598 3.262 4.508 6.13 4.57a13.182 13.182 0 0 1-8.134 2.798c-.538 0-1.054-.024-1.57-.09A18.469 18.469 0 0 0 10.064 29c12.072 0 18.672-10 18.672-18.668 0-.29-.01-.57-.024-.848A13.087 13.087 0 0 0 32 6.078z"/></symbol><symbol id="icon-facebook" viewBox="0 0 32 32"><path d="M21.329 5.313h2.921V.225C23.746.156 22.013 0 19.994 0c-4.212 0-7.097 2.649-7.097 7.519V12H8.249v5.688h4.648V32h5.699V17.689h4.46l.708-5.688h-5.169V8.082c.001-1.644.444-2.769 2.735-2.769z"/></symbol><symbol id="icon-linkedin" viewBox="0 0 32 32"><path d="M31.992 32v-.001H32V20.263c0-5.741-1.236-10.164-7.948-10.164-3.227 0-5.392 1.771-6.276 3.449h-.093v-2.913h-6.364v21.364h6.627V21.42c0-2.785.528-5.479 3.977-5.479 3.399 0 3.449 3.179 3.449 5.657v10.401h6.62zM.528 10.636h6.635V32H.528V10.636zM3.843 0C1.722 0 0 1.721 0 3.843s1.721 3.879 3.843 3.879c2.121 0 3.843-1.757 3.843-3.879A3.846 3.846 0 0 0 3.843 0z"/></symbol></defs></svg>