<svg aria-hidden="true" style="width:0;height:0;position:absolute;overflow:hidden" xmlns="http://www.w3.org/2000/svg"><defs><symbol id="mail" viewBox="0 0 36 32"><path fill="#ccaa60" d="M34.714 1.6H1.286a1.273 1.273 0 0 0-.909.383A1.317 1.317 0 0 0 0 2.907V29.091c0 .347.135.68.377.926.231.236.553.383.909.383h33.428c.356 0 .678-.147.909-.383.233-.238.377-.564.377-.924V2.907c0-.36-.144-.686-.377-.924a1.274 1.274 0 0 0-.909-.384zM18.789 18.343a1.263 1.263 0 0 1-1.581-.003l.003.002L4.625 8.375l1.578-2.067L18 15.65l11.797-9.342 1.578 2.067-12.586 9.967z"/></symbol><symbol id="phone" viewBox="0 0 32 32"><path fill="#ccaa60" d="M31.925 24.153c-.373-.397-1.689-1.571-4.109-3.125-2.438-1.567-4.236-2.544-4.752-2.772a.27.27 0 0 0-.281.035h.001a90.707 90.707 0 0 0-2.304 1.902c-.484.415-.484.415-.881.286-.697-.229-2.863-1.379-4.75-3.27s-3.096-4.111-3.325-4.808c-.131-.397-.131-.397.286-.881a91.918 91.918 0 0 0 1.903-2.304.274.274 0 0 0 .034-.282l.001.002c-.228-.516-1.205-2.313-2.772-4.751C9.42 1.766 8.247.449 7.85.077a.278.278 0 0 0-.28-.062l.002-.001a22.819 22.819 0 0 0-4.109 1.877l.109-.059a24.26 24.26 0 0 0-3.51 2.482l.034-.028a.274.274 0 0 0-.089.269v-.002c.149.696.863 3.6 3.077 7.623 2.259 4.106 3.825 6.209 7.143 9.516s5.488 4.967 9.598 7.226c4.023 2.214 6.929 2.929 7.623 3.077a.273.273 0 0 0 .267-.09 23.965 23.965 0 0 0 2.391-3.362l.061-.113a23.023 23.023 0 0 0 1.818-4 .277.277 0 0 0-.062-.276z"/></symbol></defs></svg>