<svg version="1.1" id="svg2" width="1127.227" height="495.107" viewBox="276.612 125.189 889.405 230.329" xmlns="http://www.w3.org/2000/svg"><defs id="defs6"><view id="view-1" viewBox="200.476 -163.513 32.777 4.47"/></defs><g id="g8" transform="matrix(1.33333 0 0 -1.33333 0 495.107)"><g id="g10" transform="scale(.1)"><path d="M2346.687 1417.245c-73.295 126.984-24.396 307.768 113.187 494.825 2.967-259.437 122.883-491.635 310.738-649.277-201.419-11.288-357.247 38.98-423.925 154.452zm1233.02-27.813c-72.843-40.126-155.256-64.745-243.254-69.308-58.48-3.078-115.476 2.968-169.617 16.76h-.112a2686.996 2686.996 0 0 0-15.278 4.105c-234.706 67.25-412.641 282.808-426.433 547.032-7.637 144.882 35.45 280.413 113.08 388.247 1.709 2.391 3.413 4.787 5.24 7.067 56.201 75.691 129.72 137.24 214.758 178.052l-113.99 234.248c-276.764-139.183-469.294-414.696-483.424-735.234-222.051-235.388-321.343-466.67-236.3-613.826 79.218-137.246 301.843-172.35 587.042-115.929 150.808-112.394 339.458-179.08 544.183-179.08 125.845 0 245.533 25.194 354.166 70.788l-130.061 267.077" style="fill:#fff;fill-opacity:1;fill-rule:nonzero;stroke:none;stroke-width:.508749px" id="path12"/><path d="M2346.687 1417.245c-73.295 126.984-24.396 307.768 113.187 494.825 2.967-259.437 122.883-491.635 310.738-649.277-201.419-11.288-357.247 38.98-423.925 154.452zm1233.02-27.813c-72.843-40.126-155.256-64.745-243.254-69.308-58.48-3.078-115.476 2.968-169.617 16.76h-.112a2686.996 2686.996 0 0 0-15.278 4.105c-234.706 67.25-412.641 282.808-426.433 547.032-7.637 144.882 35.45 280.413 113.08 388.247 1.709 2.391 3.413 4.787 5.24 7.067 56.201 75.691 129.72 137.24 214.758 178.052l-113.99 234.248c-276.764-139.183-469.294-414.696-483.424-735.234-222.051-235.388-321.343-466.67-236.3-613.826 79.218-137.246 301.843-172.35 587.042-115.929 150.808-112.394 339.458-179.08 544.183-179.08 125.845 0 245.533 25.194 354.166 70.788z" style="fill:#fff;stroke:#f2f2f2;stroke-width:5.08749px;stroke-linecap:butt;stroke-linejoin:miter;stroke-miterlimit:10;stroke-dasharray:none;stroke-opacity:1" id="path14"/><path d="M4235.144 2087.385c-93.814-120.482-223.194-245.533-379.93-364.082 1.252 3.541 2.392 7.072 3.537 10.72 165.394 135.76 290.445 281.893 361.003 418.222 71.815 138.726 87.2 267.307 31.115 364.31-68.162 117.98-229.344 167.791-436.919 153.663-166.875-11.289-363.74-63.838-566.294-155.713-57.341-25.875-115.247-55.057-172.919-87.316l-.117.112c55.398 31.12 110.8 59.96 165.852 86.523 183.186 88.222 361.686 150.345 521.616 184.32 296.601 63.263 529.481 30.204 610.983-111.03 71.24-123.336 13.217-305.489-137.927-499.73z" style="fill:#fff;stroke:#f2f2f2;stroke-width:5.08749px;stroke-linecap:butt;stroke-linejoin:miter;stroke-miterlimit:10;stroke-dasharray:none;stroke-opacity:1" id="path18"/><path d="M3843.59 1721.711c-1.48-3.53-2.966-6.955-4.447-10.49-54.604-124.471-153.998-225.697-278.703-282.122l-37.617 77.289c1.14.565 2.173 1.251 3.307 1.938-1.028-.687-2.167-1.256-3.307-1.826l-30.891 63.263c145.792 62.006 247.36 201.073 247.36 362.484 0 219.316-187.287 397.14-418.346 397.14-64.402 0-125.386-13.793-179.868-38.528l-64.631 132.906c68.274 35.683 144.988 57.57 226.942 61.787 222.054 11.625 420.395-109.432 517.974-293.752 1.14-2.162 2.279-4.329 3.301-6.496 33.629-69.307 54.828-146.362 60.19-228.317v-.804c3.536-82.865-11.518-162.433-41.264-234.472" style="fill:#fff;fill-opacity:1;fill-rule:nonzero;stroke:none;stroke-width:.508749px" id="path20"/><path d="M3843.59 1721.711c-1.48-3.53-2.966-6.955-4.447-10.49-54.604-124.471-153.998-225.697-278.703-282.122l-37.617 77.289c1.14.565 2.173 1.251 3.307 1.938-1.028-.687-2.167-1.256-3.307-1.826l-30.891 63.263c145.792 62.006 247.36 201.073 247.36 362.484 0 219.316-187.287 397.14-418.346 397.14-64.402 0-125.386-13.793-179.868-38.528l-64.631 132.906c68.274 35.683 144.988 57.57 226.942 61.787 222.054 11.625 420.395-109.432 517.974-293.752 1.14-2.162 2.279-4.329 3.301-6.496 33.629-69.307 54.828-146.362 60.19-228.317v-.804c3.536-82.865-11.518-162.433-41.264-234.472z" style="fill:#fff;stroke:#f2f2f2;stroke-width:5.08749px;stroke-linecap:butt;stroke-linejoin:miter;stroke-miterlimit:10;stroke-dasharray:none;stroke-opacity:1" id="path22"/><path d="M4773.72 2477.748c-42.292 0-75.042-16.779-98.24-50.32-23.2-33.551-34.798-80.302-34.798-140.245 0-124.764 44.34-187.137 133.038-187.137 37.211 0 82.283 9.806 135.214 29.46v-99.494c-43.5-19.143-92.08-28.714-145.726-28.714-77.09 0-136.07 24.69-176.902 74.048-40.848 49.383-61.26 120.23-61.26 212.591 0 58.158 10.02 109.133 30.082 152.892 20.063 43.733 48.882 77.284 86.459 100.634 37.576 23.342 81.623 35.008 132.133 35.008 51.478 0 103.187-13.133 155.15-39.417l-36.251-96.435c-19.817 9.949-39.752 18.623-59.807 26.024-20.07 7.4-39.76 11.105-59.092 11.105" style="fill:#fff;fill-opacity:1;fill-rule:nonzero;stroke:none;stroke-width:.815728px" id="path24"/><path d="M5101.056 2223.645c0-42.36 6.582-74.367 19.761-96.05 13.163-21.69 34.615-32.536 64.34-32.536 29.486 0 50.692 10.787 63.625 32.343 12.917 21.557 19.388 53.64 19.388 96.243 0 42.342-6.526 74.099-19.578 95.286-13.044 21.171-34.433 31.774-64.165 31.774-29.479 0-50.748-10.527-63.793-31.59-13.052-21.036-19.578-52.86-19.578-95.47zm280.217 0c0-69.657-17.395-124.127-52.209-163.41-34.798-39.283-83.243-58.938-145.352-58.938-38.918 0-73.232 9.002-102.957 26.997-29.724 17.986-52.558 43.817-68.516 77.476-15.941 33.685-23.92 72.968-23.92 117.875 0 69.9 17.275 124.252 51.835 163.024 34.56 38.78 83.132 58.166 145.733 58.166 38.903 0 73.224-8.934 102.949-26.787 29.724-17.852 52.566-43.49 68.508-76.923 15.95-33.416 23.929-72.582 23.929-117.48" style="fill:#fff;fill-opacity:1;fill-rule:nonzero;stroke:none;stroke-width:.815728px" id="path26"/><path d="M5817.028 2008.958h-110.563v249.896c0 30.852-5.2 54.01-15.592 69.464-10.385 15.422-26.938 23.141-49.66 23.141-30.932 0-53.28-10.904-67.064-32.72-13.766-21.817-20.658-57.974-20.658-108.496v-201.285H5442.93v427.84h84.466l14.862-54.714h6.153c12.338 20.66 29.304 36.283 50.939 46.868 21.626 10.578 46.214 15.883 73.763 15.883 47.136 0 82.894-13.46 107.308-40.364 24.405-26.92 36.608-65.776 36.608-116.534v-278.979" style="fill:#fff;fill-opacity:1;fill-rule:nonzero;stroke:none;stroke-width:.815728px" id="path28"/><path d="M6213.61 2136.01c0-43.876-14.441-77.3-43.324-100.257-28.883-22.973-72.081-34.456-129.593-34.456-29.487 0-54.614 2.113-75.4 6.328-20.784 4.2-40.236 10.376-58.361 18.548v96.444c20.531-10.217 43.674-18.75 69.413-25.639 25.747-6.89 48.398-10.334 67.968-10.334 40.117 0 60.18 12.254 60.18 36.735 0 9.178-2.668 16.654-7.98 22.387-5.318 5.75-14.496 12.253-27.548 19.52-13.045 7.266-30.447 15.756-52.201 25.454-31.17 13.77-54.074 26.526-68.69 38.252-14.633 11.75-25.263 25.202-31.909 40.39-6.645 15.17-9.963 33.868-9.963 56.053 0 38.01 13.957 67.42 41.871 88.213 27.915 20.794 67.476 31.187 118.716 31.187 48.811 0 96.304-11.222 142.463-33.676l-33.353-84.19c-20.293 9.178-39.268 16.712-56.909 22.57-17.641 5.868-35.647 8.81-54.01 8.81-32.623 0-48.947-9.312-48.947-27.935 0-10.468 5.272-19.512 15.784-27.164 10.511-7.652 33.52-19.009 69.048-34.07 31.653-13.527 54.86-26.15 69.611-37.875 14.735-11.75 25.604-25.261 32.623-40.565 7.002-15.313 10.511-33.559 10.511-54.73" style="fill:#fff;fill-opacity:1;fill-rule:nonzero;stroke:none;stroke-width:.815728px" id="path30"/><path d="m6586.994 2008.958-14.87 54.721h-5.796c-11.845-19.888-28.637-35.268-50.39-46.105-21.754-10.845-46.524-16.276-74.312-16.276-47.612 0-83.505 13.468-107.664 40.389-24.167 26.904-36.251 65.625-36.251 116.14v278.97h110.562V2186.91c0-30.876 5.193-54.025 15.593-69.464 10.385-15.438 26.938-23.14 49.66-23.14 30.932 0 53.289 10.904 67.063 32.703 13.775 21.834 20.658 57.982 20.658 108.504v201.285h110.563v-427.839h-84.816" style="fill:#fff;fill-opacity:1;fill-rule:nonzero;stroke:none;stroke-width:.815728px" id="path32"/><path d="M6898.373 2008.958H6787.81v595.457h110.563v-595.457" style="fill:#fff;fill-opacity:1;fill-rule:nonzero;stroke:none;stroke-width:.815728px" id="path34"/><path d="M7185.115 2094.305c19.332 0 42.53 4.459 69.596 13.393v-86.88c-27.55-13-61.379-19.52-101.496-19.52-44.222 0-76.431 11.809-96.605 35.402-20.181 23.602-30.272 58.996-30.272 106.2v206.263h-52.931v49.365l60.902 39.04 31.908 90.309h70.683v-91.08h113.468v-87.634H7136.9v-206.264c0-16.595 4.406-28.831 13.235-36.735 8.812-7.903 20.475-11.86 34.98-11.86" style="fill:#fff;fill-opacity:1;fill-rule:nonzero;stroke:none;stroke-width:.815728px" id="path36"/><path d="M4780.958 1677.345c-42.292 0-75.042-16.78-98.24-50.311-23.199-33.551-34.798-80.31-34.798-140.252 0-124.767 44.34-187.139 133.038-187.139 37.212 0 82.283 9.816 135.214 29.46v-99.492c-43.5-19.136-92.08-28.716-145.725-28.716-77.09 0-136.071 24.699-176.903 74.056-40.848 49.375-61.26 120.23-61.26 212.584 0 58.164 10.02 109.133 30.082 152.893 20.063 43.75 48.882 77.291 86.459 100.64 37.577 23.334 81.624 35.003 132.133 35.003 51.479 0 103.187-13.125 155.15-39.41l-36.251-96.443c-19.817 9.957-39.752 18.629-59.807 26.031-20.07 7.4-39.76 11.096-59.092 11.096" style="fill:#fff;fill-opacity:1;fill-rule:nonzero;stroke:none;stroke-width:.815728px" id="path38"/><path d="M5108.294 1423.241c0-42.358 6.582-74.367 19.761-96.04 13.164-21.7 34.616-32.544 64.34-32.544 29.487 0 50.692 10.784 63.625 32.35 12.918 21.55 19.388 53.634 19.388 96.234 0 42.352-6.526 74.11-19.578 95.295-13.044 21.166-34.433 31.767-64.165 31.767-29.479 0-50.748-10.53-63.792-31.58-13.052-21.04-19.578-52.861-19.578-95.482zm280.217 0c0-69.647-17.395-124.125-52.209-163.399-34.797-39.294-83.243-58.947-145.352-58.947-38.918 0-73.232 9.003-102.956 26.997-29.725 17.987-52.558 43.818-68.516 77.474-15.942 33.686-23.921 72.97-23.921 117.875 0 69.908 17.276 124.253 51.835 163.033 34.56 38.773 83.132 58.158 145.734 58.158 38.902 0 73.223-8.925 102.948-26.788 29.725-17.85 52.566-43.487 68.508-76.914 15.95-33.414 23.93-72.59 23.93-117.489" style="fill:#fff;fill-opacity:1;fill-rule:nonzero;stroke:none;stroke-width:.815728px" id="path40"/><path d="M5676.365 1644.432c14.982 0 27.43-1.14 37.339-3.444l-8.344-109.435c-8.94 2.547-19.809 3.824-32.623 3.824-35.282 0-62.768-9.573-82.465-28.7-19.698-19.142-29.542-45.936-29.542-80.368v-217.753h-110.562v427.838h83.735l16.315-71.944h5.43c12.569 23.978 29.55 43.307 50.94 57.974 21.38 14.667 44.642 22.008 69.777 22.008" style="fill:#fff;fill-opacity:1;fill-rule:nonzero;stroke:none;stroke-width:.815728px" id="path42"/><path d="M5977.248 1551.056c-27.311 0-47.255-8.866-59.815-26.585-12.575-17.735-19.094-47.02-19.578-87.836v-12.621c0-45.92 6.463-78.837 19.396-98.732 12.925-19.916 33.408-29.855 61.45-29.855 49.533 0 74.311 43.124 74.311 129.35 0 42.1-6.113 73.67-18.308 94.715-12.21 21.055-31.352 31.564-57.456 31.564zm32.622-350.161c-47.611 0-84.942 18.246-112.015 54.746h-5.795c3.858-35.728 5.795-56.39 5.795-62.01v-173.353h-110.562v616.116h89.904l15.585-55.483h5.073c25.858 42.342 64.165 63.52 114.913 63.52 47.858 0 85.308-19.519 112.38-58.55 27.066-39.023 40.602-93.232 40.602-162.64 0-45.668-6.343-85.329-19.038-119.004-12.68-33.686-30.757-59.324-54.186-76.924-23.452-17.608-51.002-26.418-82.656-26.418" style="fill:#fff;fill-opacity:1;fill-rule:nonzero;stroke:none;stroke-width:.815728px" id="path44"/><path d="M6345.178 1423.241c0-42.358 6.581-74.367 19.76-96.04 13.172-21.7 34.624-32.544 64.34-32.544 29.487 0 50.693 10.784 63.626 32.35 12.925 21.55 19.387 53.634 19.387 96.234 0 42.352-6.518 74.11-19.578 95.295-13.044 21.166-34.432 31.767-64.165 31.767-29.479 0-50.74-10.53-63.792-31.58-13.044-21.04-19.578-52.861-19.578-95.482zm280.216 0c0-69.647-17.395-124.125-52.2-163.399-34.798-39.294-83.252-58.947-145.36-58.947-38.911 0-73.225 9.003-102.95 26.997-29.724 17.987-52.565 43.818-68.515 77.474-15.95 33.686-23.93 72.97-23.93 117.875 0 69.908 17.285 124.253 51.836 163.033 34.56 38.773 83.14 58.158 145.734 58.158 38.902 0 73.224-8.925 102.948-26.788 29.733-17.85 52.566-43.487 68.516-76.914 15.942-33.414 23.921-72.59 23.921-117.489" style="fill:#fff;fill-opacity:1;fill-rule:nonzero;stroke:none;stroke-width:.815728px" id="path46"/><path d="M6913.256 1644.432c14.982 0 27.423-1.14 37.33-3.444l-8.335-109.435c-8.948 2.547-19.817 3.824-32.623 3.824-35.282 0-62.776-9.573-82.473-28.7-19.69-19.142-29.542-45.936-29.542-80.368v-217.753H6687.05v427.838h83.743l16.307-71.944h5.439c12.56 23.978 29.542 43.307 50.93 57.974 21.38 14.667 44.65 22.008 69.786 22.008" style="fill:#fff;fill-opacity:1;fill-rule:nonzero;stroke:none;stroke-width:.815728px" id="path48"/><path d="m7234.066 1406.79-42.768-1.532c-32.146-1.015-56.067-7.135-71.771-18.357-15.72-11.24-23.564-28.33-23.564-51.294 0-32.912 17.88-49.367 53.646-49.367 25.604 0 46.095 7.779 61.442 23.344 15.346 15.574 23.016 36.232 23.016 62.014zm32.639-198.234-21.397 58.175h-2.905c-18.61-24.751-37.76-41.907-57.449-51.486-19.705-9.547-45.38-14.35-77.035-14.35-38.918 0-69.54 11.75-91.897 35.227-22.357 23.468-33.527 56.892-33.527 100.249 0 45.409 15.037 78.908 45.127 100.467 30.09 21.546 75.462 33.483 136.126 35.777l70.318 2.29v18.749c0 43.373-21.015 65.063-63.07 65.063-32.383 0-70.452-10.342-114.19-31.001l-36.608 78.843c46.636 25.762 98.352 38.645 155.15 38.645 54.368 0 96.057-12.506 125.06-37.5 29.001-25.009 43.498-63.016 43.498-114.05v-285.098h-77.201" style="fill:#fff;fill-opacity:1;fill-rule:nonzero;stroke:none;stroke-width:.815728px" id="path50"/><path d="M7613.627 1293.901c19.332 0 42.515 4.46 69.604 13.404v-86.88c-27.55-13.009-61.402-19.53-101.512-19.53-44.221 0-76.431 11.81-96.605 35.41-20.181 23.593-30.264 58.988-30.264 106.201v206.262h-52.931v49.367l60.902 39.032 31.9 90.315h70.699v-91.088h113.444v-87.626H7565.42v-206.262c0-16.606 4.39-28.84 13.227-36.744 8.812-7.903 20.475-11.86 34.98-11.86" style="fill:#fff;fill-opacity:1;fill-rule:nonzero;stroke:none;stroke-width:.815728px" id="path52"/><path d="M7932.984 1561.392c-23.444 0-41.808-7.845-55.098-23.527-13.29-15.699-20.904-37.951-22.841-66.782h155.149c-.476 28.831-7.614 51.083-21.38 66.782-13.775 15.682-32.385 23.527-55.83 23.527zm15.577-360.497c-65.245 0-116.239 19.018-152.958 57.025-36.75 38.011-55.114 91.85-55.114 161.5 0 71.687 16.982 127.101 50.938 166.277 33.956 39.157 80.893 58.735 140.835 58.735 57.282 0 101.853-17.205 133.753-51.663 31.908-34.43 47.866-82.025 47.866-142.74v-56.633h-261.369c1.207-33.171 10.504-59.062 27.907-77.677 17.395-18.623 41.808-27.934 73.224-27.934 24.413 0 47.484 2.672 69.238 8.038 21.753 5.347 44.468 13.895 68.159 25.622v-90.309c-19.34-10.211-39.998-17.793-61.998-22.763-21.984-4.98-48.819-7.478-80.48-7.478" style="fill:#fff;fill-opacity:1;fill-rule:nonzero;stroke:none;stroke-width:.815728px" id="path54"/><path d="M8370.891 1293.901c28.28 0 49.001 8.66 62.18 26.025 13.164 17.348 20.349 46.817 21.563 88.396v12.631c0 45.924-6.708 78.836-20.126 98.726-13.417 19.911-35.218 29.851-65.427 29.851-24.644 0-43.81-11.036-57.457-33.097-13.663-22.07-20.475-54.15-20.475-96.25 0-42.09 6.883-73.673 20.65-94.708 13.79-21.054 33.472-31.574 59.092-31.574zm-38.791-93.006c-47.604 0-84.998 19.53-112.182 58.568-27.2 39.031-40.8 93.117-40.8 162.253 0 70.16 13.846 124.806 41.514 163.981 27.677 39.157 65.793 58.735 114.373 58.735 50.987 0 89.897-20.917 116.732-62.752h3.62c-5.573 31.885-8.336 60.323-8.336 85.332v137.008h110.92v-595.464h-84.816l-21.388 55.494h-4.716c-25.144-42.094-63.443-63.155-114.921-63.155" style="fill:#fff;fill-opacity:1;fill-rule:nonzero;stroke:none;stroke-width:.815728px" id="path56"/><path d="M3070.901 1909.902c4.345 18.758 37.612 35.74 54.986 42.847l34.946 15.197c4.441 1.979 6.614 3.159 10.76 5.53 14.611 8.196 24.68 17.572 34.35 30.8 2.967 4.146 9.875 17.77 10.369 23.494-8.588 0-15.105-1.878-22.609-2.468-.097 5.53-1.974 13.324-2.467 18.758 7.799.193 12.932 3.85 17.277 7.799 3.948 3.653 8.883 10.266 11.548 14.804 6.614 11.452 10.76 24.481 13.818 37.612-7.499 3.948-35.236 12.536-46.393 12.536v1.287c9.972 0 16.977-.692 25.071-1.287 10.465-.59 14.907-3.75 23.795-3.75.097 4.935-.296 2.961 1.282 6.217-17.97 9.478-47.68 8.888-69.002 8.888-8.491 0-16.29-1.979-23.794-2.569 11.157 15.201 73.051 16.484 95.263 11.254v7.504c-15.4 1.282-28.332 10.266-69.002 10.068-5.626-.097-7.895.397-11.548.987-6.909.89-6.909-.59-12.24-.987v2.467c10.46 0 14.9 2.37 23.788 2.564 21.816.596 53.012.102 71.566-8.78 10.068 19.047.794 39.682-19.444 45.802l-18.56 6.415c-29.217 13.823-73.54 7.998-85.983-27.243-2.961-8.39-1.18-14.016-2.763-22.309-1.384-6.914-3.454-1.679-3.55-8.786 0-6.619 3.652-13.624 2.762-20.533-.987-6.914-.987-6.125 1.775-10.068 8.985-13.233-7.107-20.732-13.72-30.703-3.257-4.935-7.698-10.068-8.39-16.779-.987-8.491 4.045-14.514 9.972-16.097-2.966-12.729.097-22.502 11.253-25.07-21.917-41.362-55.774-32.18-77.396-58.044-10.658-12.932-15.003-23.097-18.066-40.868-1.775-10.267.3-27.64-2.269-36.528l-9.971-28.923c-14.611-49.75.3-68.31-24.283-93.579-2.859-2.96-6.023-7.209-8.49-10.368-8.589-11.35-15.99-23.693-22.111-36.722-8.19-17.765-14.118-37.118-23.397-54.395-7.108-13.324-18.458-19.938-29.813-29.02-3.948-3.159-5.825-7.6-11.152-8.979 2.366 4.34 3.653 7.3 6.319 11.254-2.768 4.141-16.189 17.465-20.635 20.823-7.402 5.53-6.319 3.16-7.006 14.214-.396 5.922-2.767 10.562-6.914 14.413-20.63 18.565-46.59-12.734-27.935-31.685 5.927-5.921 15.695-3.556 19.546-10.561 1.48-2.763 2.076-4.742 3.653-7.606 5.23-9.371 10.76-17.272 17.175-25.463 7.011-9.086-2.666-12.932 7.896-30.998 1.48-2.57 2.57-3.851 4.05-5.922 6.909-8.791 11.548-4.441 20.136.097 2.966-4.345 4.146-5.037 8.786-7.499-1.674-2.57-3.454-4.35-5.922-6.619-1.577-1.384-1.679-1.384-3.352-2.864l-26.064-22.904c-5.728-5.031-2.864-1.48-10.663-3.057-6.12-1.084-12.337-7.993-8.588-17.868 2.371-5.922 10.959-8.684 17.278-4.64 8.882 5.729.89 10.17 11.35 16.194 8.786 5.128 26.063 18.162 34.747 20.431 2.274-3.357 5.037-6.613 7.698-9.87l16.29-20.044c1.48-1.674 2.269-3.058 3.851-4.93l146.098-174.832c6.618-6.409 10.958-13.619 17.572-20.034l63.375-64.566c3.46-3.352 5.922-6.02 9.381-9.473l7.006-6.709c1.78-1.98.987-.103 2.075-2.96-6.415 1.676-24.384 18.354-30.504 23.391l-48.866 43.93c-1.974 2.07-2.269 2.468-4.044 4.735l-1.776 2.077c-.992 1.083-1.185 1.383-2.274 2.661l-51.526 58.735c-2.172 2.67-6.614 8.293-8.985 9.875-.788-35.734-16.585-81.243-27.935-115.004-6.42-19.149-10.663-36.424 6.609-47.975 15.898 30.11 24.684 64.562 29.024 98.912.3 2.468-.194.789.595 3.16 1.776 5.433.193.986 1.776 3.261 0-46.006-8.786-80.063-27.147-116.982-4.248-8.486-16.29-23.592-17.964-30.994 5.031-7.6 12.734-10.368 21.713-13.33 38.6-12.438 86.08-12.438 125.666-3.652 25.57 5.723 49.558 19.746 82.031 23.295 22.512 2.469 40.771-2.466 58.344-9.278 12.342-4.834 28.729-10.465 41.463-2.864 11.548 6.914.885 16.091-5.037 23.005-15.497 18.162-20.925 15.592-37.51 46.393-11.946 22.014-13.034 68.014-9.081 93.879l4.441 65.746c0 11.844 1.282 20.925 1.282 33.857 0 34.158 1.186 70.386-2.666 103.953-6.12 54.686-26.358 116.188-39.982 170.579-2.86 11.355-4.833 15.796-4.935 30.21-.097 12.53-2.468 21.122-7.596 28.723-8.791-1.979-8.196-3.75-20.04-3.75.194.194.687.693.784.49.102-.296.595.3.794.396l5.133 2.467c7.107 3.16 13.818 6.024 14.606 15.502l-18.95-4.94c-22.905-4.736-52.616 1.089-67.624 1.089v2.564c20.635-4.833 70.386-.392 87.861 12.439 8.293 6.12 7.403 14.708 4.935 25.173-4.345-3.256-7.01-10.562-13.823-15.105 3.261 11.945 15.797 12.836 16.392 56.37.194 9.966-1.287 15.297-1.287 23.89-1.877-.102-19.643-9.778-31.39-12.54 2.071 2.864 5.134 3.454 8.588 5.331 14.215 7.504 28.53 20.136 32.082 36.818 6.909 31.589-9.377 63.97-9.28 97.04 0 15.002 3.653 22.308-6.318 22.608 0-32.28-16.484-66.142-41.362-82.824 1.282 4.838 16.29 25.07 20.533 37.215 5.332 14.906 8.293 32.081 9.575 48.077-8.288 0-6.614-1.09-8.98-8.593-3.749-12.14-10.76-24.38-18.859-33.756-.59-.692-1.083-1.287-1.775-1.979-.194-.193-.392-.493-.59-.687-.199-.198-.397-.493-.596-.59l-8.486-7.9c-.198-.098-.493-.392-.692-.494l-17.373-11.452c-4.64-2.564-7.504-4.146-12.638-6.217-24.282-9.87-51.43-18.264-72.557-33.96-7.5-5.53-12.831-13.028-19.15-17.276zm107.8-36.324c4.049 2.172 8.388 4.243 12.535 6.318 4.543 2.27 9.28 3.852 13.822 6.217-1.185-4.441-4.543-5.031-10.861-9.28-23.988-15.893-27.442-20.828-55.576-20.828-18.361 0-34.254 17.573-38.894 37.607 4.543-3.352 2.864-10.165 14.118-19.643 18.757-15.893 42.445-8.78 59.03 5.434 14.515 12.337 15.598 24.18 20.828 28.032-6.018-26.058-13.324-27.442-15.003-33.857zm-94.074-76.506c0-5.922 2.758-8.888 6.314-11.254-.789-3.454-2.468-5.133-2.468-7.504 0-11.548 4.839-4.543-5.723-20.63l-23.494-35.439c-2.961-3.846-3.16-5.235-5.53-9.574-32.28-58.146-30.897-115.792-19.745-183.12 3.063-18.36 11.85-56.96 13.03-72.16-3.847 2.568-8.883 9.772-12.14 14.117l-34.747 44.226c-4.146 5.326-7.8 9.177-11.844 14.51-10.861 14.605-25.768 30.799-35.246 44.911 6.222 9.382 13.228 17.374 20.238 26.262 9.183 11.447 5.627 9.376 12.144 9.773 15.298 1.084 15.593 24.186-1.089 24.186-3.653 0-5.82-1.185-7.895-3.358-9.082-9.08 6.908-3.357-15.497-22.115-9.381-7.794-16.687-16.682-26.755-23.392-2.07 3.948-4.045 7.209-6.217 11.253 2.172 3.16 3.058 3.256 5.428 7.108 11.055 17.674 6.91 19.846 23.988 42.546l45.314 62.49c25.071 38.197 35.633 68.707 50.443 109.966 2.462 6.909 3.55 14.215 5.723 21.815 1.582 5.134 1.384 4.442 2.173 10.369.595 4.14 1.577 6.908 2.37 11.452 1.084 6.613 3.551 17.47 3.75 23.885l1.577-4.736c.397-1.679.692-3.358 1.384-6.024 5.723-20.233 13.522-32.377 16.29-54.095.982-7.993-1.776-15.4-1.776-25.468zm124.18-33.862c1.68-1.974 1.68-1.674 2.667-4.935 2.666-9.28-4.243-5.82 1.877-16.682 9.478-16.88 20.233-54.589 21.713-73.642 2.371-31.191-.59-53.698-9.773-81.634l-10.266-22.415c.198 6.914 2.864 14.123 4.146 21.027 3.16 16.391 7.306 55.972 5.235 69.795-1.679 11.055-1.974 29.32-4.538 46.891-1.979 13.721-6.715 28.236-9.875 41.56-3.85-.992-17.078-15.008-28.825 2.564 4.044-.987 11.055-5.723 20.141-.097 5.627 3.455 7.499 8.588 7.499 17.567zm-347.282-87.755c-9.473 6.416-13.522 10.755-27.64 1.282 1.282 15.105 26.257 15.395 27.64-1.282zm319.642-278.28c-4.838 3.55-12.734 22.603-15.2 29.909-1.68 5.23-3.552 12.439-4.442 18.066-8.985 52.024 9.87 102.762 25.371 150.742 9.87 30.403 18.162 60.704 18.162 95.95h2.468c0-40.079 4.441-34.747-3.063-79.767-6.415-38.69-19.841-69.591-26.256-102.757l-6.12-36.528c-1.776-13.13-.693-27.244.396-40.476.392-5.724 2.27-13.024 3.551-17.766 1.282-4.741 4.838-13.522 5.133-17.373zm-241.95 161.695 6.023 6.614c3.648-2.564 9.275-10.663 12.235-14.606 32.972-43.829 71.276-89.835 104.838-134.747l63.97-83.914c2.661-3.551 4.345-4.34 4.737-8.978-3.058 2.267-8.98 10.459-12.144 14.111l-71.27 87.958c-4.345 5.525-8.293 9.575-12.536 15.003zm241.95-161.695 1.481-2.468-1.48 2.468" style="fill:#fff;fill-opacity:1;fill-rule:evenodd;stroke:none;stroke-width:.508749px" id="path58"/><path d="M3449.477 1988.876c0 12.734 16.29 10.663 16.29 1.287 0-13.034-16.29-10.272-16.29-1.287zm-165.445-190.522c2.172 9.28 45.706 100.885 47.578 109.081h2.569c.392-5.032 8.883-22.207 11.254-27.539l17.765-39.982c1.877-4.737 4.248-8.491 6.42-13.62l12.14-27.94c-15.792 3.755-22.406 7.504-45.112 7.504-16.488 0-40.476-1.679-52.614-7.504zm172.847 468.9h2.57c2.665-.393 5.133-1.776 6.71-4.64 1.185-1.975 1.877-5.23 2.172-7.897 9.28 0 33.862 6.813 33.862-8.786 0-12.632-3.754-28.525-10.958-36.721-6.614-7.504-17.079-11.452-25.468-15.893 0-60.12-2.467-114.907-2.467-174.334 0-17.47 1.083-7.6 8.587-17.668 5.724-7.8 3.455-13.818 1.379-22.406 15.7-1.287 42.842-38.899 65.252-48.865 9.972-4.543 18.168-5.037 32.575-5.037-14.407 27.346 26.359 35.832 26.359 9.972 0-9.773-3.948-10.857-7.504-16.29 1.877-8.191 6.023-16.484 9.28-24.481 1.383-3.557 2.075-4.345 3.357-7.896l15.303-39.978c4.538-10.765 20.233-48.178 20.925-56.766-5.133-3.454-5.428-4.833-13.029-7.005-14.118-4.05-35.536-7.505-49.654-4.249v-2.564c10.267 0 14.708-2.467 25.076-2.467 14.902 0 23.983 2.762 36.325 3.75-2.864-6.024-3.358-10.364-7.204-16.586-11.747-18.554-28.139-27.243-51.73-27.243-19.744 0-39.189 15.4-46.199 32.677-9.28 22.802-3.358 34.645 5.53 55.57l11.747 29.716c3.75 10.562 22.11 53.8 22.706 61.305-15.207 0-20.93.391-32.677 3.75-25.372 7.305-51.038 25.075-82.723 25.075-18.854 0-39.983-7.9-56.37-15.104-20.04-8.786-28.428-13.721-57.646-13.721.488-6.517 23.79-64.067 28.82-76.506 4.249-10.663 16.29-36.523 16.29-46.398 0-8.883-54.69-14.51-61.4-11.254 1.577-3.942-1.577-1.673 5.728-2.96 1.873-.392 3.551-.494 6.71-.89 23.592-3.257 25.667.788 47.68 2.568-2.568-10.953-7.702-19.642-15.104-27.447l-1.282-1.282c-18.462-17.765-46.79-20.233-68.31-5.82-15.105 10.063-25.57 27.64-25.274 47.182.097 9.971 14.804 39.687 19.149 51.928l24.781 64.163c1.48 3.953 3.846 9.478 4.64 12.933-3.556 5.433-7.504 6.517-7.504 16.29 0 12.042 10.363 18.559 20.335 14.31 10.958-4.736 11.06-14.707 5.921-24.282 14.81 0 23.001.494 33.466 5.429 21.718 10.068 48.667 47.186 64.362 48.473-.987 4.34-2.468 4.243-2.468 8.781 0 15.894 12.541 18.066 12.541 22.512 0 60.903-2.57 118.06-2.57 179.263-12.438-.987-10.856-1.577-13.028-13.227-3.851-20.533-10.562-40.573-16.092-60.414l-13.523-37.907c-11.848-26.358-16.29-29.12-36.233-41.361-23.982-14.708-31.781-32.576-72.75-55.184-6.518-3.648-28.038-14.312-36.427-15.004-.199 9.972-3.846 15.696-3.75 28.826.097 10.862 0 21.719 0 32.576l38.497 17.969c6.614 3.154 13.034 5.428 19.155 8.389 6.614 3.16 12.337 5.037 18.559 8.98 13.324 8.592 16.188 19.352 21.418 33.765 9.28 25.763 23.591 50.443 35.241 75.122l9.575 18.066c13.33 22.308 19.251 40.176 41.855 54.588 9.875 6.319 2.768 6.217 6.415 15.99 1.48 3.755 4.94 6.12 8.491 6.614zm76.608-468.9 36.818 82.331c4.146 8.19 8.883 23.494 13.324 26.75 2.172-9.178 44.82-96.84 47.685-109.08-8.196 1.876-3.358 2.761-21.128 5.234-21.419 2.961-45.213 3.454-66.24-1.974-4.736-1.185-6.71-2.37-10.46-3.26" style="fill:#fff;fill-opacity:1;fill-rule:evenodd;stroke:none;stroke-width:.508749px" id="path60"/><path d="M3296.567 1155.218c0 20.738-53.21 27.447-76.699 10.273-11.95-8.69-7.804-18.661 6.314-21.72 15.303-3.356 70.385-4.837 70.385 11.447" style="fill:#fff;fill-opacity:1;fill-rule:evenodd;stroke:none;stroke-width:.508749px" id="path62"/></g></g></svg>