<svg aria-hidden="true" style="position: absolute; width: 0; height: 0; overflow: hidden;" version="1.1" xmlns="http://www.w3.org/2000/svg" xmlns:xlink="http://www.w3.org/1999/xlink">
<defs>
<symbol id="mail" viewBox="0 0 36 32">
<path fill="#ccaa60" d="M34.714 1.6h-33.428c-0.356 0.001-0.678 0.147-0.909 0.383l-0 0c-0.233 0.238-0.377 0.564-0.377 0.924 0 0.001 0 0.001 0 0.002v-0 26.182c0 0.347 0.135 0.68 0.377 0.926 0.231 0.236 0.553 0.383 0.909 0.383h33.428c0.356-0 0.678-0.147 0.909-0.383l0-0c0.233-0.238 0.377-0.564 0.377-0.924 0-0.001 0-0.001 0-0.002v0-26.182c0-0.001 0-0.001 0-0.002 0-0.36-0.144-0.686-0.377-0.924l0 0c-0.231-0.236-0.553-0.383-0.909-0.384h-0zM18.789 18.343c-0.215 0.171-0.49 0.275-0.789 0.275h-0c-0.299-0-0.575-0.104-0.792-0.278l0.003 0.002-12.586-9.967 1.578-2.067 11.797 9.342 11.797-9.342 1.578 2.067-12.586 9.967z"></path>
</symbol>
<symbol id="phone" viewBox="0 0 32 32">
<path fill="#ccaa60" d="M31.925 24.153c-0.373-0.397-1.689-1.571-4.109-3.125-2.438-1.567-4.236-2.544-4.752-2.772-0.033-0.015-0.071-0.024-0.111-0.024-0.064 0-0.123 0.022-0.17 0.059l0.001-0c-0.831 0.648-2.229 1.838-2.304 1.902-0.484 0.415-0.484 0.415-0.881 0.286-0.697-0.229-2.863-1.379-4.75-3.27s-3.096-4.111-3.325-4.808c-0.131-0.397-0.131-0.397 0.286-0.881 0.064-0.075 1.255-1.474 1.903-2.304 0.036-0.046 0.058-0.105 0.058-0.169 0-0.040-0.009-0.078-0.024-0.113l0.001 0.002c-0.228-0.516-1.205-2.313-2.772-4.751-1.556-2.419-2.729-3.736-3.126-4.108-0.050-0.047-0.117-0.076-0.191-0.076-0.031 0-0.061 0.005-0.089 0.014l0.002-0.001c-1.542 0.535-2.863 1.149-4.109 1.877l0.109-0.059c-1.316 0.771-2.452 1.582-3.51 2.482l0.034-0.028c-0.059 0.051-0.096 0.125-0.096 0.208 0 0.021 0.002 0.041 0.007 0.061l-0-0.002c0.149 0.696 0.863 3.6 3.077 7.623 2.259 4.106 3.825 6.209 7.143 9.516s5.488 4.967 9.598 7.226c4.023 2.214 6.929 2.929 7.623 3.077 0.018 0.004 0.038 0.006 0.058 0.006 0.084 0 0.159-0.037 0.209-0.096l0-0c0.872-1.023 1.682-2.159 2.391-3.362l0.061-0.113c0.732-1.272 1.341-2.612 1.818-4 0.008-0.026 0.013-0.055 0.013-0.085 0-0.074-0.028-0.141-0.075-0.191l0 0z"></path>
</symbol>
<symbol id="icon-heart" viewBox="0 0 35 32">
<path fill="#d1b06b" style="fill: var(--color1, #d1b06b)" d="M17.6 32c0.568-0 1.096-0.174 1.533-0.47l-0.010 0.006c6.65-4.446 9.529-7.494 11.117-9.4 3.384-4.063 5.005-8.233 4.959-12.75-0.053-5.176-4.269-9.386-9.399-9.386-3.73 0-6.313 2.069-7.817 3.792-0.047 0.053-0.105 0.096-0.17 0.126l-0.003 0.001c-0.062 0.028-0.134 0.045-0.21 0.045-0.152 0-0.289-0.066-0.383-0.171l-0-0.001c-1.504-1.725-4.088-3.792-7.817-3.792-5.129 0-9.345 4.21-9.399 9.387-0.046 4.517 1.576 8.688 4.959 12.75 1.588 1.906 4.467 4.954 11.117 9.4 0.428 0.29 0.955 0.463 1.523 0.463h0z"></path>
</symbol>
<symbol id="icon-star" viewBox="0 0 35 32">
<path fill="#d1b06b" style="fill: var(--color1, #d1b06b)" d="M17.333 0l3.892 11.977h12.593l-10.188 7.402 3.892 11.977-10.188-7.402-10.188 7.402 3.892-11.977-10.188-7.402h12.593l3.892-11.977z"></path>
</symbol>
</defs>
</svg>
