<?xml version="1.0" encoding="utf-8"?>
<svg version="1.1" id="svg2" width="1127.2267" height="495.10666" viewBox="276.612 125.189 889.405 230.329" xmlns="http://www.w3.org/2000/svg">
  <defs id="defs6">
    <view id="view-1" viewBox="200.476 -163.513 32.777 4.47">
      <title>View 1</title>
    </view>
  </defs>
  <g id="g8" transform="matrix(1.3333333,0,0,-1.3333333,0,495.10667)">
    <g id="g10" transform="scale(0.1)" style="fill:#2b0000">
      <path d="m 2346.6872,1417.2448 c -73.2955,126.9839 -24.3961,307.768 113.1871,494.8249 2.967,-259.4367 122.8828,-491.635 310.7375,-649.2766 -201.4184,-11.2882 -357.2464,38.9808 -423.9246,154.4517 z m 1233.0194,-27.8133 c -72.8428,-40.1256 -155.2551,-64.744 -243.2535,-69.307 -58.4807,-3.0784 -115.4759,2.9671 -169.6171,16.7588 -0.1119,0 -0.1119,0 -0.1119,0 -5.1332,1.3675 -10.2563,2.7365 -15.2777,4.1061 -234.7065,67.2505 -412.6416,282.8077 -426.4338,547.0317 -7.6363,144.8817 35.4497,280.4126 113.0798,388.2471 1.7094,2.3911 3.4137,4.7873 5.2401,7.0665 56.2015,75.6918 129.721,137.2403 214.7584,178.0522 l -113.9904,234.2486 c -276.7638,-139.1838 -469.2939,-414.6969 -483.4234,-735.2346 -222.0514,-235.3881 -321.3429,-466.6707 -236.3004,-613.8255 79.2179,-137.2468 301.8436,-172.3505 587.0419,-115.9292 150.8086,-112.394 339.458,-179.0798 544.1838,-179.0798 125.8443,0 245.5327,25.1933 354.166,70.7879 l -130.0618,267.0772" style="fill:#ffffff;fill-opacity:1;fill-rule:nonzero;stroke:none;stroke-width:0.508749" id="path12"/>
      <path d="m 2346.6872,1417.2448 c -73.2955,126.9839 -24.3961,307.768 113.1871,494.8249 2.967,-259.4367 122.8828,-491.635 310.7375,-649.2766 -201.4184,-11.2882 -357.2464,38.9808 -423.9246,154.4517 z m 1233.0194,-27.8133 c -72.8428,-40.1256 -155.2551,-64.744 -243.2535,-69.307 -58.4807,-3.0784 -115.4759,2.9671 -169.6171,16.7588 -0.1119,0 -0.1119,0 -0.1119,0 -5.1332,1.3675 -10.2563,2.7365 -15.2777,4.1061 -234.7065,67.2505 -412.6416,282.8077 -426.4338,547.0317 -7.6363,144.8817 35.4497,280.4126 113.0798,388.2471 1.7094,2.3911 3.4137,4.7873 5.2401,7.0665 56.2015,75.6918 129.721,137.2403 214.7584,178.0522 l -113.9904,234.2486 c -276.7638,-139.1838 -469.2939,-414.6969 -483.4234,-735.2346 -222.0514,-235.3881 -321.3429,-466.6707 -236.3004,-613.8255 79.2179,-137.2468 301.8436,-172.3505 587.0419,-115.9292 150.8086,-112.394 339.458,-179.0798 544.1838,-179.0798 125.8443,0 245.5327,25.1933 354.166,70.7879 z" style="fill:#ffffff;stroke:#f2f2f2;stroke-width:5.08749;stroke-linecap:butt;stroke-linejoin:miter;stroke-miterlimit:10;stroke-dasharray:none;stroke-opacity:1" id="path14"/>
      <path d="m 4235.1438,2087.3848 c -93.8135,-120.4821 -223.1935,-245.5327 -379.9291,-364.0814 1.2516,3.5409 2.3912,7.0716 3.5359,10.7194 165.3944,135.7597 290.445,281.8929 361.0035,418.2224 71.8151,138.7258 87.1996,267.3072 31.1151,364.3105 -68.1623,117.979 -229.3442,167.7906 -436.9191,153.6626 -166.8749,-11.2891 -363.7406,-63.8379 -566.2941,-155.7129 -57.3412,-25.8751 -115.247,-55.0569 -172.9188,-87.3167 l -0.117,0.1119 c 55.3977,31.1203 110.8005,59.9612 165.8522,86.523 183.1855,88.2223 361.6853,150.3457 521.6158,184.32 296.6009,63.263 529.481,30.2044 610.9826,-111.0295 71.2402,-123.3362 13.2174,-305.4888 -137.927,-499.7293 z" style="fill:#ffffff;stroke:#f2f2f2;stroke-width:5.08749;stroke-linecap:butt;stroke-linejoin:miter;stroke-miterlimit:10;stroke-dasharray:none;stroke-opacity:1" id="path18"/>
      <path d="m 3843.5899,1721.711 c -1.4805,-3.5307 -2.966,-6.9546 -4.4465,-10.4904 -54.6041,-124.4707 -153.9985,-225.6965 -278.7031,-282.1219 l -37.617,77.2892 c 1.1396,0.5647 2.1724,1.2515 3.3069,1.9383 -1.0277,-0.6868 -2.1673,-1.2566 -3.3069,-1.8264 l -30.8913,63.263 c 145.7924,62.0064 247.3591,201.073 247.3591,362.4839 0,219.3168 -187.2859,397.1401 -418.3447,397.1401 -64.4026,0 -125.3863,-13.7923 -179.8683,-38.5277 l -64.6315,132.9057 c 68.2741,35.6837 144.9885,57.5701 226.9429,61.7876 222.0539,11.625 420.3949,-109.432 517.9731,-293.7519 1.1396,-2.1622 2.2792,-4.3294 3.3018,-6.4967 33.6283,-69.3069 54.8279,-146.3621 60.1901,-228.3166 v -0.4578 c 0,-0.1171 0,-0.1171 0,-0.229 v -0.117 c 3.5358,-82.8651 -11.5181,-162.4335 -41.2646,-234.4724" style="fill:#ffffff;fill-opacity:1;fill-rule:nonzero;stroke:none;stroke-width:0.508749" id="path20"/>
      <path d="m 3843.5899,1721.711 c -1.4805,-3.5307 -2.966,-6.9546 -4.4465,-10.4904 -54.6041,-124.4707 -153.9985,-225.6965 -278.7031,-282.1219 l -37.617,77.2892 c 1.1396,0.5647 2.1724,1.2515 3.3069,1.9383 -1.0277,-0.6868 -2.1673,-1.2566 -3.3069,-1.8264 l -30.8913,63.263 c 145.7924,62.0064 247.3591,201.073 247.3591,362.4839 0,219.3168 -187.2859,397.1401 -418.3447,397.1401 -64.4026,0 -125.3863,-13.7923 -179.8683,-38.5277 l -64.6315,132.9057 c 68.2741,35.6837 144.9885,57.5701 226.9429,61.7876 222.0539,11.625 420.3949,-109.432 517.9731,-293.7519 1.1396,-2.1622 2.2792,-4.3294 3.3018,-6.4967 33.6283,-69.3069 54.8279,-146.3621 60.1901,-228.3166 v -0.4578 c 0,-0.1171 0,-0.1171 0,-0.229 v -0.117 c 3.5358,-82.8651 -11.5181,-162.4335 -41.2646,-234.4724 z" style="fill:#ffffff;stroke:#f2f2f2;stroke-width:5.08749;stroke-linecap:butt;stroke-linejoin:miter;stroke-miterlimit:10;stroke-dasharray:none;stroke-opacity:1" id="path22"/>
      <path d="m 4773.72,2477.7483 c -42.2925,0 -75.042,-16.7793 -98.2406,-50.3212 -23.1986,-33.5503 -34.7978,-80.3011 -34.7978,-140.244 0,-124.7638 44.3408,-187.1373 133.0384,-187.1373 37.2113,0 82.2826,9.8061 135.2137,29.4602 v -99.4942 c -43.4993,-19.1428 -92.0797,-28.7143 -145.7253,-28.7143 -77.0904,0 -136.0712,24.6913 -176.9029,74.0487 -40.8476,49.3825 -61.2594,120.2295 -61.2594,212.5912 0,58.1577 10.0193,109.1327 30.0819,152.8914 20.0625,43.7335 48.8821,77.2838 86.4586,100.634 37.5766,23.3419 81.6237,35.0087 132.1334,35.0087 51.4782,0 103.1867,-13.1335 155.1492,-39.4172 l -36.2507,-96.4351 c -19.8164,9.9486 -39.7519,18.6233 -59.8065,26.0239 -20.0705,7.4007 -39.7599,11.1052 -59.092,11.1052" style="fill:#ffffff;fill-opacity:1;fill-rule:nonzero;stroke:none;stroke-width:0.815728" id="path24"/>
      <path d="m 5101.0562,2223.6446 c 0,-42.359 6.5816,-74.3671 19.7608,-96.0495 13.1633,-21.6908 34.6152,-32.5361 64.3399,-32.5361 29.4864,0 50.6922,10.7867 63.6253,32.3433 12.9172,21.5567 19.3877,53.6402 19.3877,96.2423 0,42.3422 -6.5261,74.0989 -19.5782,95.2868 -13.0442,21.1711 -34.4326,31.7734 -64.1652,31.7734 -29.4785,0 -50.7479,-10.5268 -63.7921,-31.589 -13.0521,-21.037 -19.5782,-52.8608 -19.5782,-95.4712 z m 280.2166,0 c 0,-69.6568 -17.3949,-124.1268 -52.2087,-163.4099 -34.7978,-39.283 -83.2432,-58.9372 -145.3522,-58.9372 -38.9183,0 -73.2318,9.0015 -102.9564,26.9962 -29.7247,17.9862 -52.558,43.8173 -68.516,77.4765 -15.942,33.6844 -23.921,72.9675 -23.921,117.8744 0,69.8999 17.2759,124.2525 51.8355,163.0243 34.5597,38.7802 83.1321,58.1661 145.7333,58.1661 38.9024,0 73.2239,-8.9344 102.9485,-26.7865 29.7247,-17.8522 52.566,-43.4905 68.508,-76.9235 15.95,-33.4161 23.929,-72.5819 23.929,-117.4804" style="fill:#ffffff;fill-opacity:1;fill-rule:nonzero;stroke:none;stroke-width:0.815728" id="path26"/>
      <path d="m 5817.0277,2008.958 h -110.5623 v 249.8964 c 0,30.8515 -5.2002,54.009 -15.5927,69.464 -10.3846,15.4216 -26.938,23.1408 -49.6602,23.1408 -30.9314,0 -53.2804,-10.9041 -67.063,-32.7206 -13.7667,-21.8164 -20.658,-57.9733 -20.658,-108.4957 V 2008.958 h -110.5623 v 427.8394 h 84.4659 l 14.8623,-54.713 h 6.153 c 12.3376,20.6598 29.3038,36.2825 50.9383,46.8681 21.6266,10.5772 46.2146,15.8825 73.7638,15.8825 47.1355,0 82.894,-13.4603 107.3072,-40.3642 24.4054,-26.9207 36.608,-65.7763 36.608,-116.5334 V 2008.958" style="fill:#ffffff;fill-opacity:1;fill-rule:nonzero;stroke:none;stroke-width:0.815728" id="path28"/>
      <path d="m 6213.6103,2136.0099 c 0,-43.876 -14.4416,-77.3006 -43.3246,-100.2569 -28.8831,-22.9731 -72.0807,-34.4555 -129.5928,-34.4555 -29.4864,0 -54.6142,2.1121 -75.3993,6.3279 -20.785,4.199 -40.2362,10.376 -58.3616,18.5478 v 96.4434 c 20.531,-10.2168 43.674,-18.7489 69.4131,-25.6383 25.7471,-6.8894 48.3978,-10.3342 67.9681,-10.3342 40.1172,0 60.1797,12.2535 60.1797,36.7352 0,9.1775 -2.6676,16.6536 -7.979,22.3864 -5.3193,5.7496 -14.4971,12.2535 -27.5492,19.52 -13.0443,7.2666 -30.4471,15.7568 -52.2008,25.454 -31.1695,13.7704 -54.0743,26.5267 -68.6905,38.2522 -14.6321,11.7505 -25.2628,25.2025 -31.908,40.3894 -6.6451,15.1701 -9.9638,33.8687 -9.9638,56.054 0,38.0091 13.9573,67.419 41.8718,88.213 27.9144,20.7939 67.4758,31.1867 118.7159,31.1867 48.8107,0 96.3034,-11.2225 142.4623,-33.676 l -33.3529,-84.1899 c -20.2927,9.1775 -39.2676,16.7122 -56.9087,22.5707 -17.641,5.8669 -35.6473,8.8088 -54.0108,8.8088 -32.6225,0 -48.9457,-9.3116 -48.9457,-27.9348 0,-10.4683 5.2717,-19.5117 15.7833,-27.1638 10.5116,-7.6521 33.5196,-19.0087 69.0479,-34.0699 31.6538,-13.5274 54.8603,-26.1496 69.6115,-37.875 14.7353,-11.7506 25.6042,-25.2612 32.6225,-40.5654 7.0024,-15.3126 10.5116,-33.5587 10.5116,-54.7298" style="fill:#ffffff;fill-opacity:1;fill-rule:nonzero;stroke:none;stroke-width:0.815728" id="path30"/>
      <path d="m 6586.9943,2008.958 -14.8703,54.7214 h -5.7957 c -11.8453,-19.8888 -28.6369,-35.2684 -50.3905,-46.1054 -21.7536,-10.8454 -46.5242,-16.2765 -74.3116,-16.2765 -47.6118,0 -83.5053,13.4688 -107.6645,40.3894 -24.1671,26.904 -36.2507,65.6255 -36.2507,116.1395 v 278.971 h 110.5623 v -249.888 c 0,-30.8766 5.1923,-54.0257 15.5927,-69.464 10.3846,-15.4384 26.938,-23.1408 49.6602,-23.1408 30.9314,0 53.2884,10.9041 67.063,32.7038 13.7747,21.8332 20.658,57.9817 20.658,108.5041 v 201.2849 h 110.5623 V 2008.958 h -84.8152" style="fill:#ffffff;fill-opacity:1;fill-rule:nonzero;stroke:none;stroke-width:0.815728" id="path32"/>
      <path d="m 6898.3725,2008.958 h -110.5623 v 595.4567 h 110.5623 V 2008.958" style="fill:#ffffff;fill-opacity:1;fill-rule:nonzero;stroke:none;stroke-width:0.815728" id="path34"/>
      <path d="m 7185.1153,2094.3046 c 19.3321,0 42.5306,4.4589 69.5956,13.3933 v -86.8804 c -27.5492,-12.9993 -61.3785,-19.52 -101.4956,-19.52 -44.2218,0 -76.4314,11.8093 -96.6051,35.4026 -20.1816,23.6017 -30.2725,58.9958 -30.2725,106.1992 v 206.2634 h -52.9311 v 49.3657 l 60.9022,39.0401 31.9079,90.3083 h 70.6834 v -91.0794 h 113.468 v -87.6347 h -113.468 v -206.2634 c 0,-16.5949 4.4063,-28.8316 13.2347,-36.7351 8.8126,-7.9036 20.4754,-11.8596 34.9805,-11.8596" style="fill:#ffffff;fill-opacity:1;fill-rule:nonzero;stroke:none;stroke-width:0.815728" id="path36"/>
      <path d="m 4780.9583,1677.3449 c -42.2925,0 -75.042,-16.7793 -98.2406,-50.3111 -23.1985,-33.5511 -34.7978,-80.3095 -34.7978,-140.2516 0,-124.7671 44.3408,-187.1389 133.0384,-187.1389 37.2113,0 82.2826,9.8153 135.2137,29.4593 v -99.4917 c -43.4993,-19.1361 -92.0797,-28.7159 -145.7253,-28.7159 -77.0904,0 -136.0712,24.6988 -176.9029,74.0562 -40.8476,49.3749 -61.2594,120.2295 -61.2594,212.5837 0,58.1644 10.0193,109.1335 30.0819,152.893 20.0625,43.7495 48.8821,77.2914 86.4587,100.6408 37.5765,23.3335 81.6236,35.0019 132.1333,35.0019 51.4782,0 103.1867,-13.1251 155.1492,-39.4088 l -36.2507,-96.4434 c -19.8164,9.9561 -39.7519,18.6282 -59.8065,26.0306 -20.0705,7.3998 -39.7599,11.0959 -59.092,11.0959" style="fill:#ffffff;fill-opacity:1;fill-rule:nonzero;stroke:none;stroke-width:0.815728" id="path38"/>
      <path d="m 5108.2945,1423.2412 c 0,-42.3582 6.5816,-74.3671 19.7608,-96.0411 13.1633,-21.6992 34.6153,-32.5429 64.3399,-32.5429 29.4865,0 50.6923,10.7842 63.6253,32.3501 12.9172,21.5491 19.3877,53.6335 19.3877,96.2339 0,42.3515 -6.526,74.109 -19.5782,95.2944 -13.0442,21.1661 -34.4326,31.7675 -64.1652,31.7675 -29.4785,0 -50.7478,-10.5294 -63.7921,-31.5806 -13.0521,-21.0387 -19.5782,-52.8608 -19.5782,-95.4813 z m 280.2166,0 c 0,-69.6468 -17.3949,-124.1251 -52.2086,-163.399 -34.7979,-39.2939 -83.2433,-58.9472 -145.3522,-58.9472 -38.9184,0 -73.2319,9.0032 -102.9565,26.9969 -29.7247,17.9871 -52.558,43.8182 -68.516,77.4741 -15.942,33.6861 -23.921,72.97 -23.921,117.8752 0,69.9083 17.2759,124.2525 51.8355,163.0327 34.5597,38.7727 83.1321,58.1577 145.7333,58.1577 38.9025,0 73.2239,-8.9243 102.9486,-26.7874 29.7246,-17.8496 52.5659,-43.4871 68.5079,-76.9142 15.95,-33.4136 23.929,-72.5903 23.929,-117.4888" style="fill:#ffffff;fill-opacity:1;fill-rule:nonzero;stroke:none;stroke-width:0.815728" id="path40"/>
      <path d="m 5676.3653,1644.4316 c 14.9814,0 27.4302,-1.139 37.3384,-3.4438 l -8.3441,-109.4344 c -8.9397,2.547 -19.8085,3.8235 -32.6225,3.8235 -35.2821,0 -62.7679,-9.5731 -82.4652,-28.6992 -19.6974,-19.1428 -29.5421,-45.937 -29.5421,-80.3689 v -217.7525 h -110.5623 v 427.8377 h 83.7355 l 16.3152,-71.9441 h 5.4305 c 12.5679,23.978 29.55,43.3069 50.9384,57.9742 21.3804,14.6672 44.6425,22.0075 69.7782,22.0075" style="fill:#ffffff;fill-opacity:1;fill-rule:nonzero;stroke:none;stroke-width:0.815728" id="path42"/>
      <path d="m 5977.2479,1551.0558 c -27.3111,0 -47.2546,-8.8657 -59.8145,-26.5846 -12.5758,-17.7348 -19.0939,-47.0199 -19.5782,-87.8359 v -12.6213 c 0,-45.9202 6.4625,-78.8369 19.3956,-98.7324 12.9251,-19.9156 33.4085,-29.855 61.45,-29.855 49.5331,0 74.3116,43.1243 74.3116,129.3501 0,42.1 -6.1133,73.6706 -18.308,94.7152 -12.2106,21.0546 -31.3522,31.5639 -57.4565,31.5639 z m 32.6225,-350.1608 c -47.6119,0 -84.9423,18.246 -112.0152,54.7465 h -5.7957 c 3.8585,-35.7285 5.7957,-56.3901 5.7957,-62.0114 v -173.3517 h -110.5624 v 616.1156 h 89.9044 l 15.5848,-55.4833 h 5.0732 c 25.8582,42.3423 64.1652,63.5209 114.913,63.5209 47.8579,0 85.3075,-19.5191 112.3804,-58.5508 27.065,-39.0224 40.6014,-93.2317 40.6014,-162.6396 0,-45.6679 -6.3434,-85.329 -19.0383,-119.0041 -12.6791,-33.6861 -30.7568,-59.3236 -54.1856,-76.9243 -23.4526,-17.6074 -51.0019,-26.4178 -82.6557,-26.4178" style="fill:#ffffff;fill-opacity:1;fill-rule:nonzero;stroke:none;stroke-width:0.815728" id="path44"/>
      <path d="m 6345.1776,1423.2412 c 0,-42.3582 6.5817,-74.3671 19.7609,-96.0411 13.1712,-21.6992 34.6231,-32.5429 64.3398,-32.5429 29.4865,0 50.6923,10.7842 63.6253,32.3501 12.9252,21.5491 19.3878,53.6335 19.3878,96.2339 0,42.3515 -6.5182,74.109 -19.5783,95.2944 -13.0442,21.1661 -34.4326,31.7675 -64.1652,31.7675 -29.4785,0 -50.7399,-10.5294 -63.7921,-31.5806 -13.0442,-21.0387 -19.5782,-52.8608 -19.5782,-95.4813 z m 280.2166,0 c 0,-69.6468 -17.3949,-124.1251 -52.2007,-163.399 -34.7978,-39.2939 -83.2512,-58.9472 -145.3601,-58.9472 -38.9104,0 -73.2239,9.0032 -102.9486,26.9969 -29.7246,17.9871 -52.5659,43.8182 -68.5159,77.4741 -15.95,33.6861 -23.929,72.97 -23.929,117.8752 0,69.9083 17.2838,124.2525 51.8355,163.0327 34.5597,38.7727 83.1401,58.1577 145.7333,58.1577 38.9025,0 73.2239,-8.9243 102.9486,-26.7874 29.7326,-17.8496 52.5659,-43.4871 68.5159,-76.9142 15.9421,-33.4136 23.921,-72.5903 23.921,-117.4888" style="fill:#ffffff;fill-opacity:1;fill-rule:nonzero;stroke:none;stroke-width:0.815728" id="path46"/>
      <path d="m 6913.2564,1644.4316 c 14.9814,0 27.4222,-1.139 37.3304,-3.4438 l -8.3362,-109.4344 c -8.9476,2.547 -19.8164,3.8235 -32.6225,3.8235 -35.2821,0 -62.7758,-9.5731 -82.4731,-28.6992 -19.6894,-19.1428 -29.5421,-45.937 -29.5421,-80.3689 v -217.7525 h -110.5623 v 427.8377 h 83.7435 l 16.3072,-71.9441 h 5.4384 c 12.56,23.978 29.5421,43.3069 50.9305,57.9742 21.3804,14.6672 44.6504,22.0075 69.7862,22.0075" style="fill:#ffffff;fill-opacity:1;fill-rule:nonzero;stroke:none;stroke-width:0.815728" id="path48"/>
      <path d="m 7234.0665,1406.7896 -42.7688,-1.5321 c -32.1462,-1.015 -56.0672,-7.1342 -71.7711,-18.3567 -15.7197,-11.2393 -23.5637,-28.3296 -23.5637,-51.2934 0,-32.9125 17.8792,-49.3675 53.6456,-49.3675 25.6042,0 46.0955,7.7787 61.4421,23.3436 15.3466,15.5741 23.0159,36.2323 23.0159,62.0148 z m 32.6384,-198.2333 -21.3964,58.1745 h -2.9057 c -18.6097,-24.7508 -37.7592,-41.9064 -57.4486,-51.4862 -19.7053,-9.5471 -45.3809,-14.3496 -77.0348,-14.3496 -38.9183,0 -69.5401,11.7506 -91.8971,35.2274 -22.357,23.4676 -33.5275,56.8913 -33.5275,100.2485 0,45.4089 15.037,78.9081 45.1268,100.4673 30.0899,21.5457 75.4628,33.4824 136.1268,35.7771 l 70.3181,2.289 v 18.7497 c 0,43.3732 -21.0152,65.0631 -63.0696,65.0631 -32.3843,0 -70.4531,-10.3425 -114.1905,-31.0015 l -36.608,78.8435 c 46.6353,25.7624 98.3517,38.6453 155.1493,38.6453 54.3681,0 96.0572,-12.5065 125.0594,-37.4995 29.0021,-25.0098 43.4993,-63.0172 43.4993,-114.0509 v -285.0977 h -77.2015" style="fill:#ffffff;fill-opacity:1;fill-rule:nonzero;stroke:none;stroke-width:0.815728" id="path50"/>
      <path d="m 7613.6273,1293.9013 c 19.3321,0 42.5148,4.4588 69.6036,13.4033 v -86.8804 c -27.5493,-13.0077 -61.4024,-19.5292 -101.5116,-19.5292 -44.2217,0 -76.4313,11.8092 -96.605,35.4109 -20.1817,23.5917 -30.2645,58.9866 -30.2645,106.2001 v 206.2617 h -52.9312 v 49.3674 l 60.9022,39.0317 31.9,90.315 h 70.6992 v -91.0878 h 113.4443 v -87.6263 H 7565.42 V 1342.506 c 0,-16.6058 4.3904,-28.84 13.2268,-36.7436 8.8126,-7.9035 20.4754,-11.8611 34.9805,-11.8611" style="fill:#ffffff;fill-opacity:1;fill-rule:nonzero;stroke:none;stroke-width:0.815728" id="path52"/>
      <path d="m 7932.9845,1561.3916 c -23.4447,0 -41.8082,-7.8441 -55.0985,-23.5263 -13.2904,-15.699 -20.9041,-37.9513 -22.8413,-66.782 h 155.1492 c -0.4763,28.8307 -7.6137,51.083 -21.3804,66.782 -13.7747,15.6822 -32.3843,23.5263 -55.829,23.5263 z m 15.5769,-360.4966 c -65.245,0 -116.2389,19.018 -152.9581,57.0254 -36.7509,38.0108 -55.1144,91.8505 -55.1144,161.4998 0,71.6868 16.9821,127.1013 50.9384,166.2771 33.9562,39.1565 80.8932,58.7343 140.8347,58.7343 57.2819,0 101.853,-17.2042 133.753,-51.6622 31.9079,-34.4295 47.8658,-82.0259 47.8658,-142.7408 v -56.6323 H 7852.512 c 1.2068,-33.1714 10.5037,-59.0621 27.9066,-77.6777 17.3949,-18.6224 41.8082,-27.9332 73.2239,-27.9332 24.4133,0 47.4848,2.6711 69.2384,8.0377 21.7536,5.3464 44.4679,13.8945 68.1587,25.6216 v -90.3084 c -19.3401,-10.2117 -39.9981,-17.7934 -61.9978,-22.7635 -21.9839,-4.9802 -48.8186,-7.4778 -80.4804,-7.4778" style="fill:#ffffff;fill-opacity:1;fill-rule:nonzero;stroke:none;stroke-width:0.815728" id="path54"/>
      <path d="m 8370.891,1293.9013 c 28.2797,0 49.0012,8.6595 62.1804,26.0247 13.1633,17.3484 20.3483,46.817 21.563,88.3957 v 12.6314 c 0,45.9236 -6.7087,78.836 -20.126,98.7257 -13.4174,19.9114 -35.2186,29.8516 -65.4276,29.8516 -24.6435,0 -43.8089,-11.0365 -57.4565,-33.0969 -13.6635,-22.0696 -20.4754,-54.1506 -20.4754,-96.2498 0,-42.0899 6.8834,-73.674 20.6501,-94.7085 13.7905,-21.0546 33.4719,-31.5739 59.092,-31.5739 z m -38.7913,-93.0063 c -47.6039,0 -84.9979,19.5292 -112.1819,58.5676 -27.2,39.0316 -40.8,93.1169 -40.8,162.2532 0,70.1606 13.8461,124.8057 41.5145,163.9815 27.6763,39.1565 65.7928,58.7343 114.3732,58.7343 50.986,0 89.8964,-20.9171 116.7311,-62.7515 h 3.6203 c -5.5734,31.885 -8.3362,60.3227 -8.3362,85.3324 v 137.0072 h 110.9195 v -595.4634 h -84.8152 l -21.3884,55.4933 h -4.7159 c -25.1437,-42.0933 -63.4428,-63.1546 -114.921,-63.1546" style="fill:#ffffff;fill-opacity:1;fill-rule:nonzero;stroke:none;stroke-width:0.815728" id="path56"/>
      <path d="m 3070.9012,1909.9025 c 4.3448,18.7576 37.6118,35.7396 54.9856,42.8468 l 34.9461,15.1964 c 4.4413,1.979 6.6137,3.1593 10.76,5.5301 14.6112,8.196 24.6794,17.5722 34.3507,30.7997 2.966,4.1463 9.8748,17.7706 10.3684,23.4941 -8.5878,0 -15.1048,-1.8773 -22.6089,-2.4675 -0.097,5.5301 -1.9739,13.3242 -2.4674,18.7576 7.7991,0.1933 12.9324,3.8512 17.2771,7.7991 3.9479,3.6528 8.8828,10.2666 11.5487,14.8046 6.6136,11.452 10.76,24.481 13.8176,37.6118 -7.499,3.9479 -35.236,12.5356 -46.3929,12.5356 v 1.2872 c 9.9715,0 16.977,-0.6919 25.0712,-1.2872 10.465,-0.5901 14.9063,-3.7495 23.7942,-3.7495 0.097,4.9349 -0.2951,2.961 1.2821,6.217 -17.9691,9.478 -47.6801,8.8879 -69.0018,8.8879 -8.4909,0 -16.2901,-1.9791 -23.7942,-2.5692 11.157,15.2014 73.0513,16.4835 95.2634,11.2535 v 7.504 c -15.3999,1.2821 -28.3323,10.2666 -69.0017,10.0682 -5.6268,-0.097 -7.8958,0.3968 -11.5486,0.9869 -6.9088,0.8904 -6.9088,-0.5901 -12.2405,-0.9869 v 2.4674 c 10.4598,0 14.9013,2.3708 23.7891,2.5641 21.8152,0.5953 53.0117,0.1018 71.5658,-8.7809 10.0681,19.0475 0.7936,39.6824 -19.4444,45.8026 l -18.5592,6.4154 c -29.2175,13.8227 -73.5398,7.9975 -85.9837,-27.2436 -2.9609,-8.3893 -1.1803,-14.016 -2.7625,-22.3087 -1.3839,-6.9139 -3.4545,-1.6788 -3.5511,-8.7861 0,-6.6187 3.6528,-13.6243 2.7625,-20.5331 -0.987,-6.9139 -0.987,-6.1253 1.7755,-10.0681 8.9845,-13.2326 -7.1072,-20.7316 -13.7209,-30.703 -3.256,-4.9349 -7.6974,-10.0682 -8.3894,-16.7786 -0.9869,-8.4911 4.0447,-14.5146 9.9716,-16.0968 -2.966,-12.7289 0.097,-22.502 11.2535,-25.0712 -21.9169,-41.3613 -55.7742,-32.1784 -77.3961,-58.0432 -10.6582,-12.9324 -15.003,-23.0972 -18.0656,-40.8678 -1.7756,-10.2667 0.3001,-27.6404 -2.269,-36.5282 l -9.9715,-28.9225 c -14.6113,-49.7506 0.3001,-68.3098 -24.2827,-93.5794 -2.8591,-2.9608 -6.0235,-7.2089 -8.491,-10.3682 -8.5877,-11.3502 -15.99,-23.6925 -22.1102,-36.7216 -8.1909,-17.7655 -14.1178,-37.1183 -23.3974,-54.3955 -7.1073,-13.3241 -18.4575,-19.9378 -29.8128,-29.019 -3.9478,-3.1594 -5.8251,-7.6007 -11.1517,-8.9795 2.3656,4.3397 3.6528,7.3006 6.3186,11.2536 -2.7676,4.1412 -16.1884,17.4654 -20.6348,20.8231 -7.4023,5.5301 -6.3187,3.1593 -7.0055,14.2144 -0.3968,5.9219 -2.7676,10.5617 -6.9139,14.4129 -20.6298,18.5643 -46.5913,-12.734 -27.9355,-31.6849 5.927,-5.9218 15.695,-3.5562 19.5462,-10.5616 1.4805,-2.7626 2.0757,-4.7416 3.6528,-7.6059 5.23,-9.3711 10.7601,-17.272 17.1754,-25.4628 7.0106,-9.0863 -2.6659,-12.9324 7.8958,-30.9981 1.4804,-2.5692 2.5692,-3.8513 4.0496,-5.9219 6.9088,-8.7912 11.5486,-4.4414 20.1363,0.097 2.966,-4.3447 4.1463,-5.0366 8.7861,-7.4989 -1.6738,-2.5692 -3.4544,-4.3499 -5.9218,-6.6189 -1.5771,-1.3838 -1.6789,-1.3838 -3.3527,-2.8642 l -26.0632,-22.9039 c -5.7285,-5.0316 -2.8643,-1.4805 -10.6634,-3.0576 -6.1202,-1.0837 -12.3372,-7.9925 -8.5877,-17.8673 2.3708,-5.9218 10.9585,-8.6843 17.2772,-4.6398 8.8827,5.7285 0.8903,10.1699 11.3502,16.1935 8.7861,5.1282 26.0632,18.1624 34.7475,20.4314 2.2742,-3.3578 5.0367,-6.6138 7.6974,-9.8698 l 16.2902,-20.0447 c 1.4804,-1.6738 2.269,-3.0576 3.8512,-4.9298 l 146.0976,-174.8318 c 6.6188,-6.4092 10.9585,-13.6192 17.5722,-20.034 l 63.3749,-64.5659 c 3.4595,-3.3521 5.9219,-6.0195 9.3813,-9.4734 l 7.0055,-6.7089 c 1.7806,-1.9795 0.987,-0.1033 2.0757,-2.9609 -6.4153,1.6768 -24.3843,18.3546 -30.5046,23.3923 l -48.8654,43.9295 c -1.9739,2.0706 -2.269,2.4679 -4.0445,4.7354 l -1.7756,2.0767 c -0.992,1.0832 -1.1853,1.3833 -2.2741,2.6613 l -51.5261,58.7346 c -2.1724,2.6709 -6.6137,8.2926 -8.9846,9.8748 -0.7885,-35.7335 -16.5852,-81.2427 -27.9354,-115.0033 -6.4204,-19.1493 -10.6634,-36.4249 6.6087,-47.9751 15.8984,30.1094 24.6845,64.5614 29.0241,98.9116 0.3002,2.4685 -0.1933,0.7891 0.5953,3.1599 1.7755,5.4334 0.1933,0.9859 1.7755,3.2616 0,-46.0063 -8.786,-80.063 -27.1468,-116.9829 -4.2481,-8.4859 -16.2902,-23.5912 -17.964,-30.994 5.0316,-7.5992 12.734,-10.3678 21.7135,-13.3288 38.5988,-12.4384 86.0803,-12.4384 125.6661,-3.6528 25.5697,5.7234 49.5573,19.7461 82.0308,23.2951 22.5122,2.4685 40.7711,-2.4659 58.3434,-9.2785 12.3423,-4.8332 28.729,-10.465 41.463,-2.8638 11.5487,6.9139 0.8853,16.0913 -5.0366,23.0052 -15.4965,18.1618 -20.9248,15.5921 -37.5101,46.3933 -11.9454,22.0136 -13.0341,68.0137 -9.0811,93.8785 l 4.4413,65.7462 c 0,11.8437 1.282,20.9249 1.282,33.8573 0,34.1575 1.1855,70.3855 -2.6658,103.9528 -6.1202,54.6855 -26.3583,116.1882 -39.9826,170.5786 -2.8592,11.3553 -4.8331,15.7966 -4.9349,30.2095 -0.097,12.5306 -2.4674,21.1233 -7.5956,28.724 -8.7912,-1.979 -8.1959,-3.7495 -20.0396,-3.7495 0.1933,0.1934 0.6868,0.6919 0.7835,0.4885 0.1017,-0.2951 0.5951,0.3001 0.7936,0.3967 l 5.1333,2.4675 c 7.1072,3.1593 13.8176,6.0236 14.6062,15.5016 l -18.951,-4.94 c -22.9039,-4.7364 -52.6148,1.0887 -67.6229,1.0887 v 2.5641 c 20.6349,-4.8331 70.3854,-0.3917 87.861,12.4389 8.2926,6.1203 7.4024,14.708 4.9349,25.1729 -4.3447,-3.2559 -7.0106,-10.5616 -13.8227,-15.1047 3.261,11.9454 15.7966,12.8357 16.3919,56.3694 0.1933,9.9664 -1.2872,15.2981 -1.2872,23.8909 -1.8773,-0.1017 -19.6428,-9.7781 -31.3898,-12.5407 2.0706,2.8643 5.1333,3.4544 8.5877,5.3317 14.2145,7.5041 28.5306,20.1363 32.0817,36.8182 6.9089,31.5883 -9.3763,63.9702 -9.2796,97.0389 0,15.003 3.6528,22.3087 -6.3186,22.6088 0,-32.2801 -16.4835,-66.1425 -41.3614,-82.8244 1.2821,4.8382 16.2902,25.0712 20.5332,37.215 5.3316,14.9064 8.2926,32.0818 9.5746,48.0769 -8.2875,0 -6.6137,-1.0888 -8.9794,-8.5928 -3.7495,-12.1388 -10.7601,-24.3793 -18.8594,-33.7555 -0.5901,-0.692 -1.0836,-1.2872 -1.7755,-1.9791 -0.1933,-0.1933 -0.3917,-0.4935 -0.5901,-0.6868 -0.1984,-0.1984 -0.3969,-0.4935 -0.5953,-0.5901 l -8.4859,-7.901 c -0.1984,-0.097 -0.4935,-0.3917 -0.6919,-0.4934 l -17.3738,-11.452 c -4.6398,-2.564 -7.504,-4.1463 -12.6374,-6.2169 -24.2825,-9.8697 -51.4294,-18.2641 -72.5577,-33.959 -7.499,-5.5301 -12.8307,-13.0291 -19.1494,-17.2771 z m 107.7989,-36.3248 c 4.0497,2.1724 8.3893,4.243 12.5356,6.3187 4.5431,2.2691 9.2796,3.8512 13.8227,6.217 -1.1854,-4.4415 -4.5431,-5.0316 -10.8618,-9.2797 -23.9875,-15.8933 -27.4419,-20.8282 -55.5758,-20.8282 -18.3608,0 -34.2541,17.5722 -38.8939,37.6068 4.5432,-3.3527 2.8643,-10.1648 14.1179,-19.6428 18.7575,-15.8934 42.4449,-8.781 59.0302,5.4334 14.5146,12.3372 15.5982,24.1809 20.8281,28.0321 -6.0185,-26.0581 -13.3241,-27.4419 -15.003,-33.8573 z m -94.0729,-76.5057 c 0,-5.9219 2.7575,-8.8879 6.3137,-11.2535 -0.7886,-3.4545 -2.4675,-5.1333 -2.4675,-7.5041 0,-11.5486 4.8382,-4.5431 -5.7234,-20.6298 l -23.4941,-35.4394 c -2.9609,-3.8462 -3.1593,-5.235 -5.5301,-9.5746 -32.2801,-58.1451 -30.8964,-115.7915 -19.7445,-183.1194 3.0626,-18.3607 11.8488,-56.9595 13.029,-72.161 -3.8461,2.5692 -8.8827,9.7731 -12.1387,14.1178 l -34.7476,44.2256 c -4.1463,5.3266 -7.7992,9.1779 -11.8437,14.5095 -10.8618,14.6062 -25.7682,30.7997 -35.2462,44.9124 6.222,9.3814 13.2275,17.3738 20.2381,26.2617 9.1829,11.4468 5.6268,9.3762 12.1438,9.773 15.2981,1.0837 15.5932,24.186 -1.0887,24.186 -3.6529,0 -5.8201,-1.1854 -7.8958,-3.3577 -9.0812,-9.0812 6.9088,-3.3578 -15.4965,-22.1154 -9.3813,-7.794 -16.687,-16.6819 -26.7551,-23.3923 -2.0706,3.9479 -4.0446,7.209 -6.2169,11.2536 2.1723,3.1593 3.0575,3.256 5.4283,7.1072 11.0551,17.674 6.9088,19.8463 23.9875,42.5467 l 45.3144,62.4897 c 25.0711,38.197 35.6328,68.7066 50.4425,109.9661 2.4624,6.9088 3.5511,14.2145 5.7234,21.8153 1.5822,5.1332 1.3838,4.4413 2.1724,10.3682 0.5952,4.1412 1.5771,6.9088 2.3708,11.452 1.0836,6.6138 3.551,17.4705 3.7494,23.8858 l 1.5771,-4.7365 c 0.3968,-1.6788 0.692,-3.3577 1.3838,-6.0236 5.7235,-20.2329 13.5226,-32.3768 16.2902,-54.0953 0.9819,-7.9925 -1.7756,-15.3998 -1.7756,-25.468 z m 124.1807,-33.8623 c 1.6789,-1.9739 1.6789,-1.6738 2.6658,-4.9349 2.6659,-9.2796 -4.2429,-5.8201 1.8773,-16.6819 9.4781,-16.8803 20.233,-54.5888 21.7135,-73.6415 2.3707,-31.1914 -0.5902,-53.6984 -9.7731,-81.6339 l -10.2666,-22.4155 c 0.1984,6.9139 2.8642,14.1229 4.1463,21.0266 3.1594,16.3919 7.3056,55.9727 5.235,69.7954 -1.6789,11.0551 -1.9739,29.3192 -4.538,46.8914 -1.9791,13.7209 -6.7155,28.2356 -9.8749,41.5598 -3.8511,-0.9921 -17.0786,-15.0082 -28.8257,2.564 4.0446,-0.987 11.0551,-5.7234 20.1415,-0.097 5.6267,3.4545 7.4989,8.5877 7.4989,17.5672 z m -347.2825,-87.7542 c -9.4729,6.4153 -13.5226,10.755 -27.6404,1.282 1.2821,15.1048 26.2566,15.3948 27.6404,-1.282 z m 319.6421,-278.2809 c -4.8382,3.5511 -12.734,22.6038 -15.2014,29.9094 -1.6789,5.23 -3.5511,12.4389 -4.4414,18.0657 -8.9845,52.0247 9.8698,102.7623 25.3714,150.7425 9.8697,30.4029 18.1623,60.704 18.1623,95.9501 h 2.4674 c 0,-40.0792 4.4414,-34.7476 -3.0626,-79.7668 -6.4154,-38.6904 -19.8412,-69.5918 -26.2566,-102.7572 l -6.1202,-36.5282 c -1.7756,-13.1309 -0.6919,-27.2436 0.3968,-40.4761 0.3918,-5.7235 2.269,-13.024 3.5511,-17.7656 1.282,-4.7415 4.8382,-13.5225 5.1332,-17.3738 z m -241.951,161.6959 6.0236,6.6137 c 3.6477,-2.5641 9.2745,-10.6634 12.2354,-14.6062 32.972,-43.8287 71.2758,-89.835 104.838,-134.7474 l 63.9701,-83.9131 c 2.6608,-3.5516 4.3448,-4.3406 4.7365,-8.9789 -3.0576,2.2675 -8.9794,10.4594 -12.1438,14.1117 l -71.2707,87.9582 c -4.3448,5.525 -8.2927,9.5746 -12.5356,15.003 z m 241.951,-161.6959 1.4805,-2.4674 -1.4805,2.4674" style="fill:#ffffff;fill-opacity:1;fill-rule:evenodd;stroke:none;stroke-width:0.508749" id="path58"/>
      <path d="m 3449.4769,1988.8756 c 0,12.734 16.2901,10.6634 16.2901,1.2872 0,-13.0342 -16.2901,-10.2717 -16.2901,-1.2872 z m -165.4453,-190.5215 c 2.1724,9.2795 45.706,100.885 47.5782,109.0809 h 2.5692 c 0.3918,-5.0315 8.8828,-22.2069 11.2536,-27.5386 l 17.7655,-39.9826 c 1.8773,-4.7365 4.248,-8.491 6.4204,-13.6192 l 12.1388,-27.9405 c -15.7916,3.7545 -22.4054,7.504 -45.1109,7.504 -16.4885,0 -40.4761,-1.6788 -52.6148,-7.504 z m 172.8476,468.8991 h 2.5692 c 2.6659,-0.3918 5.1333,-1.7756 6.7104,-4.6399 1.1854,-1.9739 1.8773,-5.2299 2.1724,-7.8958 9.2795,0 33.8623,6.8122 33.8623,-8.7861 0,-12.6321 -3.7545,-28.5255 -10.9585,-36.7215 -6.6136,-7.5041 -17.0786,-11.452 -25.468,-15.8933 0,-60.1189 -2.4674,-114.9062 -2.4674,-174.3332 0,-17.4704 1.0837,-7.6007 8.5878,-17.6688 5.7233,-7.7992 3.4543,-13.8177 1.3786,-22.4054 15.7,-1.2871 42.8418,-38.8989 65.2522,-48.8654 9.9715,-4.5431 18.1675,-5.0366 32.5752,-5.0366 -14.4077,27.3453 26.3584,35.8313 26.3584,9.9715 0,-9.7731 -3.9479,-10.8567 -7.5041,-16.2901 1.8773,-8.1909 6.0236,-16.4835 9.2796,-24.4811 1.3838,-3.5561 2.0757,-4.3446 3.3577,-7.8958 l 15.3032,-39.9775 c 4.538,-10.7652 20.233,-48.1786 20.9249,-56.7662 -5.1333,-3.4545 -5.4283,-4.8332 -13.0291,-7.0055 -14.1177,-4.0497 -35.5361,-7.5041 -49.654,-4.2481 v -2.5641 c 10.2667,0 14.708,-2.4674 25.0763,-2.4674 14.9013,0 23.9825,2.7625 36.3248,3.7495 -2.8643,-6.0236 -3.3578,-10.3633 -7.2039,-16.5852 -11.747,-18.5541 -28.139,-27.2436 -51.7297,-27.2436 -19.7445,0 -39.189,15.3999 -46.1995,32.6771 -9.2796,22.802 -3.3577,34.6457 5.5301,55.5706 l 11.747,29.716 c 3.7495,10.5617 22.1103,53.8003 22.7055,61.3044 -15.2065,0 -20.93,0.3917 -32.677,3.7494 -25.3713,7.3057 -51.0377,25.0763 -82.7227,25.0763 -18.8542,0 -39.9825,-7.9009 -56.3694,-15.1048 -20.0396,-8.7861 -28.4289,-13.7209 -57.6463,-13.7209 0.4883,-6.5171 23.7891,-64.0669 28.8206,-76.5058 4.248,-10.6634 16.2901,-36.5231 16.2901,-46.3979 0,-8.8828 -54.6905,-14.5096 -61.4009,-11.2536 1.5771,-3.9428 -1.5772,-1.6737 5.7285,-2.9609 1.8722,-0.3917 3.551,-0.4935 6.7104,-0.8903 23.5907,-3.256 25.6664,0.7885 47.68,2.5692 -2.5692,-10.9534 -7.7025,-19.6428 -15.1048,-27.447 l -1.2821,-1.282 c -18.4624,-17.7656 -46.7896,-20.2331 -68.3097,-5.8202 -15.1048,10.0631 -25.5698,27.6404 -25.2747,47.1814 0.097,9.9715 14.8046,39.6876 19.1494,51.9281 l 24.7811,64.1635 c 1.4805,3.953 3.8462,9.4779 4.6398,12.9324 -3.5561,5.4334 -7.504,6.517 -7.504,16.2901 0,12.0421 10.3632,18.5592 20.3347,14.3111 10.9585,-4.7364 11.0602,-14.7079 5.9218,-24.2826 14.8097,0 23.0006,0.4935 33.4656,5.4284 21.7185,10.0681 48.6669,47.1865 64.3618,48.4736 -0.9869,4.3396 -2.4674,4.243 -2.4674,8.7811 0,15.8933 12.5407,18.0656 12.5407,22.5121 0,60.9024 -2.5692,118.0604 -2.5692,179.263 -12.4389,-0.987 -10.8567,-1.5772 -13.029,-13.2275 -3.8513,-20.5331 -10.5617,-40.5728 -16.0918,-60.414 l -13.5226,-37.9069 c -11.8488,-26.3583 -16.2901,-29.1209 -36.2331,-41.3613 -23.9825,-14.708 -31.7816,-32.5753 -72.7512,-55.1841 -6.5171,-3.6477 -28.0372,-14.3111 -36.4264,-15.0031 -0.1984,9.9715 -3.8462,15.695 -3.7495,28.8258 0.097,10.8618 0,21.7185 0,32.5753 l 38.497,17.969 c 6.6138,3.1542 13.0342,5.4283 19.1545,8.3892 6.6137,3.1594 12.3371,5.0367 18.5591,8.9795 13.3242,8.5927 16.1885,19.3528 21.4184,33.7657 9.2796,25.763 23.5907,50.4425 35.2411,75.1219 l 9.5747,18.0657 c 13.3292,22.3086 19.251,40.1759 41.8547,54.5888 9.8749,6.3186 2.7677,6.2169 6.4154,15.99 1.4804,3.7546 4.94,6.1202 8.491,6.6138 z m 76.6075,-468.8991 36.8182,82.3309 c 4.1463,8.1909 8.8828,23.494 13.3241,26.75 2.1724,-9.1778 44.8209,-96.8404 47.6852,-109.0809 -8.196,1.8773 -3.3578,2.7624 -21.1284,5.235 -21.4184,2.9609 -45.2126,3.4544 -66.2392,-1.974 -4.7365,-1.1853 -6.7104,-2.3707 -10.4599,-3.261 v 0" style="fill:#ffffff;fill-opacity:1;fill-rule:evenodd;stroke:none;stroke-width:0.508749" id="path60"/>
      <path d="m 3296.5671,1155.218 c 0,20.7376 -53.2101,27.447 -76.699,10.2727 -11.9505,-8.6905 -7.8042,-18.661 6.3136,-21.7196 15.3031,-3.3562 70.3854,-4.8367 70.3854,11.4469 v 0" style="fill:#ffffff;fill-opacity:1;fill-rule:evenodd;stroke:none;stroke-width:0.508749" id="path62"/>
    </g>
  </g>
</svg>